<?xml version="1.0" standalone="no"?>
<!DOCTYPE svg PUBLIC "-//W3C//DTD SVG 20010904//EN"
 "http://www.w3.org/TR/2001/REC-SVG-20010904/DTD/svg10.dtd">
<svg version="1.0" xmlns="http://www.w3.org/2000/svg"
 width="800.000000pt" height="800.000000pt" viewBox="0 0 800.000000 800.000000"
 preserveAspectRatio="xMidYMid meet">

<g transform="translate(0.000000,800.000000) scale(0.100000,-0.100000)"
fill="#000000" stroke="none">
<path d="M5127 7698 c2 -167 6 -395 9 -508 2 -113 4 -230 4 -260 0 -31 5 -63
12 -72 12 -15 18 -14 68 3 38 13 84 19 148 19 91 0 132 10 132 31 0 15 26 39
41 39 10 0 10 3 1 12 -10 10 -15 10 -22 -1 -7 -12 -11 -12 -25 2 -9 10 -20 17
-25 17 -4 0 -10 8 -12 18 -3 10 -11 19 -19 19 -8 0 -30 8 -49 17 l-35 17 33
-5 c18 -3 32 -1 32 4 0 6 11 10 25 10 20 0 25 5 25 24 0 13 -7 37 -14 53 -8
15 -18 35 -21 43 -3 8 -12 25 -19 38 -11 18 -11 30 -3 53 12 30 27 39 27 17 1
-7 7 1 14 18 13 30 14 142 4 474 -2 52 1 123 5 158 l9 62 -175 0 -175 0 5
-302z"/>
<path d="M446 7645 c-11 -8 -15 -15 -9 -15 6 0 16 7 23 15 16 19 11 19 -14 0z"/>
<path d="M345 7575 c-16 -13 -25 -24 -20 -25 6 0 24 11 40 25 17 13 26 24 20
25 -5 0 -23 -11 -40 -25z"/>
<path d="M3685 7556 c-50 -7 -102 -20 -115 -28 -14 -9 -50 -21 -80 -28 -62
-14 -215 -82 -245 -110 -43 -38 -191 -119 -203 -111 -1 1 -19 -7 -40 -18 -67
-36 -111 -53 -120 -47 -14 8 -92 10 -132 2 -28 -5 -30 -4 -12 4 34 15 26 21
-25 19 -33 -1 -62 6 -93 22 -41 21 -56 23 -186 21 -77 -1 -152 -5 -165 -10
-13 -5 -46 -7 -74 -6 -27 2 -96 6 -151 10 -95 6 -313 -9 -522 -36 -63 -9 -80
-7 -134 11 -53 19 -76 21 -166 16 -87 -5 -111 -10 -141 -30 -41 -27 -79 -39
-86 -27 -9 15 -102 30 -132 21 -16 -5 -42 -21 -57 -36 l-28 -28 -37 43 -38 44
-71 -13 c-58 -10 -72 -16 -72 -31 0 -40 -57 -52 -207 -41 -8 1 -13 14 -13 31
0 27 -3 30 -32 32 -18 0 -45 0 -59 -1 -35 -3 -209 16 -232 24 -16 7 -17 -8
-17 -225 0 -265 -2 -259 82 -260 52 0 68 15 60 57 -4 23 -7 24 -52 18 -63 -9
-76 6 -55 65 8 23 15 62 15 85 0 46 10 60 52 70 15 4 42 22 60 41 18 19 43 34
55 34 12 0 23 5 25 11 3 8 19 10 50 5 46 -7 46 -8 42 -39 -8 -47 44 -126 78
-120 14 3 32 -3 47 -16 13 -12 19 -21 13 -21 -7 0 -12 -9 -12 -20 0 -19 76
-80 102 -80 7 0 30 -5 50 -10 35 -10 36 -12 31 -45 -5 -30 -3 -34 11 -29 9 3
16 10 16 15 0 5 7 9 15 9 8 0 15 6 15 14 0 24 24 35 67 29 34 -4 40 -9 36 -24
-3 -12 0 -19 8 -19 37 -1 41 -17 12 -49 -26 -27 -36 -32 -89 -34 -49 -2 -63
-7 -86 -30 -40 -40 -46 -73 -17 -100 22 -20 33 -22 163 -22 l139 0 22 30 c13
17 25 39 27 50 2 11 10 18 19 16 8 -2 20 -4 27 -4 6 0 11 -7 10 -16 -5 -27 36
-24 62 4 24 26 58 36 43 13 -4 -7 -8 -17 -8 -23 -1 -5 -6 -9 -12 -8 -6 1 -9
-6 -6 -17 4 -15 0 -20 -15 -20 -12 0 -24 -4 -27 -10 -3 -5 -1 -10 6 -10 7 0 9
-3 6 -7 -4 -3 -2 -12 3 -18 8 -9 4 -21 -13 -41 -23 -28 -24 -32 -12 -79 15
-56 52 -95 93 -95 69 -2 125 -9 152 -20 40 -17 125 -8 157 17 15 10 31 36 37
56 18 61 38 77 98 77 30 0 70 9 93 19 53 24 101 66 86 75 -6 4 -11 2 -11 -3 0
-14 -43 -14 -57 0 -7 7 -13 7 -17 1 -4 -6 -21 -7 -48 0 -24 5 -56 7 -73 4 -34
-6 -44 -1 -63 32 -11 20 -10 25 10 42 13 11 33 20 46 21 12 1 27 3 32 4 6 1
15 3 20 4 6 0 10 8 10 16 0 9 8 18 18 21 9 3 27 10 38 16 23 11 64 -4 64 -23
0 -5 10 -23 22 -39 25 -34 58 -40 58 -10 0 32 -70 156 -99 173 -26 15 -80 13
-91 -4 -3 -4 -22 -10 -41 -12 -44 -5 -62 -15 -55 -32 3 -8 -13 -20 -40 -31
-39 -16 -44 -22 -39 -41 4 -18 1 -23 -14 -23 -22 0 -40 -20 -19 -20 7 -1 3 -6
-10 -13 -12 -7 -19 -17 -15 -22 5 -4 -1 -5 -12 0 -11 4 -30 7 -42 6 -13 0 -23
4 -23 9 0 6 -16 10 -35 10 -24 0 -35 5 -35 15 0 8 -5 15 -11 15 -5 0 -7 5 -4
11 5 6 12 4 21 -8 13 -17 13 -17 14 1 0 13 5 16 17 12 10 -4 33 5 62 26 31 22
55 32 79 31 20 -1 35 4 39 13 3 8 15 14 27 15 11 0 15 3 9 6 -7 2 -13 20 -13
38 0 39 13 49 79 59 24 4 62 19 85 34 42 28 101 52 128 52 9 0 19 -11 22 -25
4 -15 16 -27 32 -31 26 -7 143 -1 339 15 61 6 117 10 125 11 12 0 12 3 -3 14
-15 12 -15 15 -2 26 17 14 20 50 5 50 -5 0 -10 -4 -10 -10 0 -5 -10 -10 -23
-10 -13 0 -28 -5 -34 -11 -9 -9 -14 -5 -19 15 -6 26 12 51 56 76 11 7 12 11 2
23 -31 37 97 94 150 66 11 -6 26 -8 34 -5 8 3 14 -1 14 -8 0 -8 5 -16 11 -18
9 -3 9 -9 0 -25 -12 -23 0 -40 19 -28 6 3 10 1 10 -4 0 -6 -4 -11 -10 -11 -5
0 -10 -5 -10 -11 0 -12 75 31 106 61 12 11 27 20 34 20 7 0 10 6 7 14 -7 17
18 41 32 32 5 -4 12 -2 16 3 3 5 14 9 25 8 14 -1 16 -4 8 -14 -8 -10 -6 -19 9
-36 11 -12 18 -30 16 -40 -3 -9 -60 -55 -128 -102 -121 -84 -141 -106 -123
-139 10 -18 34 -15 101 10 56 21 66 18 84 -23 8 -21 21 -42 29 -46 12 -7 12
-13 -1 -44 -16 -38 -19 -95 -6 -128 5 -12 2 -33 -6 -53 -8 -20 -9 -31 -3 -27
18 11 -1 -97 -22 -122 -8 -10 -12 -38 -9 -80 3 -58 1 -65 -18 -70 -24 -6 -28
-23 -6 -23 17 0 18 -5 6 -28 -5 -9 -11 -30 -14 -47 -3 -16 -12 -43 -21 -60 -9
-16 -16 -38 -16 -49 0 -16 2 -17 16 -5 9 7 20 22 24 34 9 19 9 19 9 -2 1 -12
23 -45 51 -74 52 -55 58 -68 18 -49 -21 10 -21 9 4 -14 23 -20 52 -91 72 -171
1 -5 -11 -16 -28 -25 -17 -8 -33 -24 -35 -35 -2 -11 -10 -24 -18 -28 -11 -7
-9 -13 12 -33 15 -13 31 -22 36 -19 5 4 13 -4 18 -17 5 -13 21 -33 35 -45 14
-13 26 -29 26 -36 0 -8 16 -30 37 -50 20 -20 33 -37 28 -37 -4 0 9 -20 29 -44
20 -24 36 -53 36 -63 0 -10 11 -35 24 -57 l24 -38 -22 -22 -21 -21 54 -5 c31
-4 56 -11 59 -19 5 -14 40 -49 62 -61 13 -7 15 9 12 121 -3 88 0 129 7 129 6
0 11 -7 11 -15 0 -8 4 -15 9 -15 5 0 17 -17 27 -37 9 -21 17 -38 16 -38 0 0 4
-18 9 -40 6 -22 12 -83 14 -135 2 -52 7 -106 13 -120 5 -14 6 -34 2 -45 -4
-11 -5 -26 -3 -32 3 -7 -2 -13 -11 -13 -28 0 -18 -32 34 -107 28 -40 50 -79
50 -87 0 -8 4 -17 9 -20 5 -3 21 -29 36 -58 15 -29 36 -62 46 -74 11 -11 22
-32 24 -45 5 -29 53 -71 163 -145 45 -31 82 -60 82 -65 0 -19 -27 -8 -65 26
-21 20 -64 49 -96 66 -61 33 -129 93 -129 116 0 24 -38 -8 -56 -49 l-17 -38
42 -59 c22 -33 41 -65 41 -73 0 -20 -30 -59 -40 -53 -9 6 -38 87 -46 129 -6
37 -45 122 -92 203 -63 109 -87 192 -87 301 0 78 -2 91 -15 85 -8 -4 -33 -8
-55 -8 -117 -4 -155 -26 -164 -96 -1 -3 -14 -21 -31 -39 -30 -33 -37 -64 -32
-145 2 -26 -3 -32 -36 -47 -37 -17 -138 -54 -222 -82 -25 -8 -81 -30 -125 -50
-43 -19 -83 -32 -87 -30 -4 3 -8 33 -8 67 0 34 -4 67 -8 74 -10 17 -59 19
-102 5 -62 -19 -172 -32 -301 -36 -69 -2 -135 -8 -146 -14 -26 -14 -34 -75
-32 -224 1 -60 -3 -113 -7 -118 -5 -4 -33 -15 -62 -24 -40 -11 -54 -12 -57 -3
-2 7 -6 83 -9 169 -4 87 -11 168 -17 182 -8 17 -28 29 -66 41 -59 19 -104 16
-155 -9 -34 -18 -173 -32 -211 -22 -14 3 -33 13 -42 22 -16 16 -79 24 -91 11
-8 -7 -5 -797 2 -809 3 -5 64 -7 136 -6 l131 3 10 -28 c7 -23 5 -33 -15 -58
-23 -29 -25 -30 -132 -34 -74 -3 -112 -9 -118 -17 -8 -12 -10 -318 -2 -318 2
0 31 18 65 40 34 22 66 40 72 40 11 0 7 -40 -17 -165 -18 -99 -37 -319 -41
-487 -2 -70 -9 -136 -14 -147 -6 -11 -8 -33 -5 -50 5 -26 1 -36 -25 -60 -30
-28 -40 -64 -21 -76 19 -12 29 -76 19 -133 -9 -57 -16 -114 -44 -362 -23 -207
-20 -352 11 -495 43 -203 53 -270 47 -313 -5 -34 0 -51 26 -96 17 -31 54 -127
82 -213 58 -178 106 -301 126 -322 8 -7 12 -20 9 -27 -3 -8 0 -14 7 -14 7 0
27 -24 45 -53 l32 -52 -42 -6 c-42 -7 -129 -60 -283 -174 -33 -25 -76 -54 -95
-66 -19 -12 -45 -35 -58 -51 l-24 -28 2682 0 c2304 0 2689 2 2733 14 29 8 79
17 112 20 83 7 86 8 35 15 l-45 6 57 33 c117 68 149 126 238 439 l32 111 162
-1 c88 0 358 0 599 1 l437 1 0 47 0 46 -35 -6 c-23 -5 -59 0 -107 15 -54 16
-85 19 -123 15 -27 -4 -59 -7 -70 -7 -32 0 -154 -19 -227 -35 -54 -11 -85 -12
-159 -4 -144 16 -270 12 -438 -15 -23 -4 -24 -3 -18 48 27 230 47 379 53 388
4 7 36 9 93 5 47 -3 268 -8 491 -9 223 -2 411 -7 418 -11 7 -4 37 -4 67 -1
l55 7 0 114 0 113 -37 6 c-21 4 -50 11 -64 16 -32 12 -70 61 -60 78 10 16 67
31 118 31 l43 0 0 324 c0 282 -2 325 -15 330 -9 3 -23 2 -33 -3 -75 -41 -110
-51 -136 -41 -35 13 -79 13 -93 -1 -7 -7 -22 -7 -51 1 -52 13 -60 27 -28 41
14 7 23 16 20 20 -3 5 0 9 5 9 6 0 11 7 11 15 0 8 16 18 37 24 36 10 60 7 131
-20 30 -12 58 -11 80 0 9 6 29 12 45 16 21 4 27 11 27 31 0 20 -4 25 -16 20
-23 -9 -125 16 -131 32 -7 17 16 42 38 42 23 0 24 9 3 38 -24 34 -119 31 -248
-10 -55 -17 -104 -34 -108 -37 -4 -4 -1 -18 6 -33 10 -19 11 -28 3 -31 -8 -2
-7 -13 2 -35 15 -36 3 -63 -27 -57 -9 2 -25 4 -34 4 -10 1 -19 13 -23 31 -8
35 -29 43 -113 42 -132 -1 -159 -29 -66 -66 28 -12 61 -28 75 -38 20 -13 22
-18 11 -30 -10 -10 -49 -13 -157 -13 -128 0 -168 -5 -154 -19 10 -10 137 -25
192 -24 68 2 90 -12 56 -35 -16 -12 -27 -13 -41 -6 -25 14 -58 2 -58 -21 0
-10 -5 -22 -11 -25 -5 -4 -14 -17 -20 -28 -5 -12 -15 -30 -21 -40 -11 -15 -10
-20 2 -30 8 -7 16 -20 18 -29 2 -15 -5 -18 -43 -18 -43 0 -45 1 -45 29 0 25
-4 29 -37 35 -61 10 -148 7 -160 -5 -18 -18 -33 22 -34 98 -1 37 -6 71 -11 74
-5 3 -11 22 -15 43 -4 29 -2 40 12 50 22 16 14 46 -15 53 -11 3 -20 6 -20 7
-7 24 -30 168 -30 184 0 13 9 35 20 49 11 14 20 40 20 59 0 32 0 32 48 31 26
-1 53 -6 59 -10 7 -5 24 1 40 12 40 30 153 33 208 6 33 -16 65 -20 180 -22
286 -5 347 -3 361 8 8 6 27 13 43 15 16 2 33 4 38 5 4 1 24 -1 44 -5 23 -5 45
-4 58 3 16 9 21 9 21 -1 1 -7 9 -3 19 9 11 13 28 23 40 23 20 0 20 2 21 573 0
351 -4 595 -10 632 -6 33 -13 146 -16 250 -2 105 -7 224 -10 265 -3 41 -7 140
-9 220 -5 194 -14 263 -32 256 -8 -4 -18 -6 -23 -6 -5 0 -15 -6 -23 -14 -15
-15 -15 -189 -1 -666 3 -113 7 -403 9 -645 4 -446 -3 -583 -31 -606 -8 -6 -63
-23 -122 -37 -99 -23 -128 -25 -397 -27 -159 -2 -371 -6 -469 -10 l-179 -8 7
29 c10 38 11 72 2 110 l-8 31 129 2 c70 1 131 5 135 9 6 6 1 168 -18 679 l-6
162 -224 0 c-123 -1 -228 2 -234 6 -6 4 -20 -1 -30 -10 -27 -24 -40 -12 -89
88 -28 59 -41 99 -44 142 -7 87 -30 136 -77 163 -21 12 -51 22 -65 22 -14 0
-36 7 -49 15 -37 25 -161 64 -233 75 -38 5 -99 18 -138 29 -38 10 -101 24
-140 30 -53 9 -104 29 -206 81 -75 38 -180 87 -235 109 -54 22 -121 51 -149
64 -27 14 -86 37 -130 53 -113 39 -254 144 -333 247 -38 49 -68 74 -78 64 -2
-1 1 -20 7 -42 5 -22 7 -80 3 -130 -4 -68 -2 -101 10 -135 16 -47 13 -71 -3
-27 -11 28 -94 86 -123 87 -14 0 -18 -8 -18 -35 0 -74 -50 -142 -281 -386 -53
-56 -79 -96 -136 -211 -40 -79 -77 -163 -84 -188 -7 -25 -16 -49 -21 -55 -15
-17 -8 -24 22 -20 24 3 33 -1 41 -18 13 -29 62 -57 80 -46 15 9 14 11 -24 27
-15 6 -32 23 -38 36 -16 35 7 80 44 84 16 2 27 9 27 18 0 8 -4 12 -10 9 -5 -3
-10 -1 -10 4 0 6 4 11 9 11 5 0 12 12 16 27 4 19 9 23 14 14 6 -10 10 -9 15 4
3 9 10 13 16 10 5 -3 10 1 10 9 0 22 20 20 21 -1 0 -10 7 -2 14 17 10 25 14
29 15 15 l1 -20 8 20 c18 45 26 -35 24 -234 -2 -124 1 -201 6 -195 12 12 31
116 31 170 0 23 9 64 21 91 13 31 20 66 19 98 -4 82 0 136 8 132 4 -3 5 15 3
39 -2 26 1 44 7 44 13 0 20 -143 11 -235 -19 -183 -33 -277 -75 -485 -24 -124
-56 -263 -70 -310 -15 -47 -28 -105 -31 -130 -3 -25 -9 -49 -13 -55 -5 -5 -11
-27 -15 -47 -4 -21 -13 -38 -20 -38 -7 0 -15 -7 -19 -15 -3 -8 -12 -12 -21 -9
-10 4 -15 0 -15 -10 0 -9 7 -16 15 -16 19 0 19 -9 0 -34 -8 -11 -15 -28 -15
-38 0 -22 -8 -23 -31 -2 -13 12 -16 25 -12 51 4 26 3 34 -5 29 -7 -4 -12 -27
-12 -52 0 -24 -4 -44 -10 -44 -5 0 -10 23 -10 51 0 67 -20 54 -21 -14 l-1 -52
-9 40 c-5 21 -14 42 -19 45 -5 3 -12 53 -15 110 -3 58 -10 138 -16 179 -5 41
-12 168 -16 284 -5 155 -9 206 -17 195 -6 -8 -17 -13 -23 -11 -7 3 -13 -4 -14
-14 -1 -13 -3 -11 -9 7 -5 17 -8 19 -9 8 -1 -10 -6 -18 -11 -18 -6 0 -8 10 -4
24 3 14 -1 34 -9 48 -8 12 -18 47 -21 76 -4 29 -11 62 -16 75 -15 34 -2 -79
16 -138 7 -27 14 -59 14 -72 0 -12 5 -23 10 -23 6 0 10 -17 10 -38 0 -20 5
-53 10 -72 6 -19 15 -64 20 -100 16 -105 20 -116 31 -99 7 9 8 -4 4 -41 -4
-35 -1 -86 9 -139 24 -126 17 -150 -9 -31 -12 58 -32 136 -44 174 -12 38 -40
150 -62 249 -45 199 -84 339 -131 467 -38 103 -69 230 -56 230 5 0 16 -16 24
-35 11 -27 20 -35 39 -35 25 0 35 -15 15 -22 -10 -3 0 -33 40 -123 5 -11 16
-38 25 -59 8 -22 17 -37 19 -35 3 2 -2 38 -10 79 -8 41 -12 88 -8 103 6 27 7
27 21 10 8 -10 12 -13 9 -6 -4 6 -2 14 4 18 5 3 12 -6 16 -20 3 -14 12 -25 20
-25 8 0 14 -4 14 -10 0 -5 7 -10 15 -10 8 0 15 -5 15 -11 0 -7 16 -32 36 -55
33 -41 37 -43 52 -28 9 9 24 38 33 63 9 25 19 53 22 61 4 10 -9 27 -35 48 -39
31 -148 184 -148 209 0 18 11 43 20 43 4 0 10 -17 13 -38 2 -21 15 -54 27 -73
24 -37 134 -129 154 -129 6 0 35 47 64 105 48 97 129 228 185 300 13 17 32 51
41 78 10 26 25 55 34 64 10 9 16 18 14 20 -1 2 1 15 4 30 6 24 8 25 20 9 12
-17 13 -16 23 2 6 12 8 28 5 36 -3 9 -1 16 5 16 7 0 11 6 9 13 -1 6 3 22 10
34 7 12 17 46 22 75 6 29 17 68 26 87 25 52 30 109 11 124 -13 10 -14 21 -7
57 4 25 11 67 15 95 7 58 24 85 37 61 13 -23 27 -20 40 9 6 14 18 25 26 25 7
0 16 9 19 19 3 12 17 23 34 26 29 7 41 18 47 45 3 16 4 21 17 87 4 23 16 50
26 59 11 9 19 22 19 28 0 6 13 25 29 41 15 17 33 40 39 52 17 31 34 114 27
132 -5 13 -9 13 -23 -6 -18 -22 -76 -34 -100 -19 -21 12 -15 38 8 31 10 -3 33
1 50 10 18 9 38 14 46 11 7 -3 24 0 36 7 42 23 126 116 138 153 13 38 6 139
-11 149 -12 8 -11 57 2 92 5 15 12 100 14 188 3 88 5 163 5 168 0 4 8 -1 18
-10 10 -10 17 -24 14 -30 -2 -7 1 -13 7 -13 6 0 11 6 11 14 0 9 20 16 65 21
58 6 66 9 71 31 6 22 -3 114 -10 114 -2 0 -24 -9 -50 -21 -26 -11 -55 -18 -65
-14 -11 3 -26 -1 -36 -11 -15 -15 -18 -15 -32 -1 -24 23 -34 97 -18 127 8 14
16 38 20 54 10 47 25 22 34 -55 1 -3 24 -11 52 -17 28 -7 57 -19 65 -27 9 -8
20 -15 25 -15 10 0 15 112 11 241 -3 79 -1 89 18 107 l22 21 -21 44 c-15 31
-21 63 -21 109 0 86 -8 92 -102 83 -40 -4 -134 -6 -208 -5 -156 2 -157 2 -162
-78 l-3 -51 -35 50 c-19 28 -51 66 -70 85 -45 44 -187 114 -330 161 -25 9 -76
31 -115 49 -67 32 -90 37 -235 48 -25 2 -86 -2 -135 -8z m-2633 -381 c14 -18
29 -25 54 -25 54 0 124 -36 124 -63 0 -40 -35 -51 -158 -51 -79 -1 -117 3
-124 12 -6 6 -19 12 -29 12 -25 0 -31 14 -19 45 8 20 15 25 29 20 15 -5 21 0
26 23 6 27 16 35 74 51 2 1 12 -10 23 -24z m1798 1 c0 -2 -12 -11 -26 -21 -20
-13 -28 -14 -40 -5 -7 7 -11 16 -8 21 5 9 74 13 74 5z m-2107 -33 c4 -3 -1
-15 -10 -26 -17 -19 -17 -19 2 -14 56 17 71 17 90 3 20 -16 20 -16 -2 -22 -13
-3 -23 -10 -23 -14 0 -4 -11 -5 -24 -3 -13 3 -27 0 -30 -6 -4 -6 -18 -11 -30
-11 -19 0 -25 7 -31 36 -3 20 -5 37 -3 39 8 6 44 24 49 25 3 0 9 -3 12 -7z
m729 -3 c9 -1 22 -8 28 -15 6 -8 17 -12 23 -10 7 3 18 1 26 -4 12 -7 12 -13 3
-24 -7 -7 -9 -16 -6 -19 3 -4 -10 -9 -28 -13 l-33 -8 25 -9 c24 -10 24 -10
-15 -22 -41 -12 -36 -30 8 -25 12 1 41 -3 65 -10 35 -10 41 -15 33 -29 -6 -11
-4 -20 7 -28 25 -19 4 -34 -52 -38 -27 -2 -51 -8 -55 -13 -8 -14 -61 -23 -61
-11 0 6 -8 7 -17 3 -10 -4 -40 -9 -68 -11 l-50 -3 43 17 c31 12 44 23 48 42 3
14 9 33 15 42 13 25 11 38 -5 38 -7 0 -19 6 -25 14 -7 8 -28 22 -47 31 -19 9
-39 26 -44 38 -8 21 -9 21 -10 2 -1 -18 -2 -17 -11 4 -11 28 -14 25 41 51 34
15 58 19 95 15 28 -2 58 -5 67 -5z m-511 -286 c18 -11 -26 -33 -57 -29 -16 2
-35 4 -41 4 -19 1 -15 19 5 23 35 7 83 9 93 2z m279 -64 c-11 -21 -35 -27 -45
-11 -6 10 22 30 43 31 10 0 10 -5 2 -20z m2905 -26 c16 -10 38 -15 61 -12 31
4 37 1 45 -20 15 -40 -6 -55 -66 -48 -27 3 -63 7 -79 9 -17 2 -31 8 -33 14 -2
5 -19 9 -38 7 -19 -1 -35 2 -35 7 0 5 11 9 25 9 14 0 29 8 35 20 6 11 15 18
20 15 5 -3 11 -1 15 5 9 14 22 13 50 -6z m-2942 -19 c-3 -9 -8 -14 -10 -11 -3
3 -2 9 2 15 9 16 15 13 8 -4z m1553 -32 c-18 -33 -21 -26 -6 13 6 15 13 24 16
21 3 -3 -1 -18 -10 -34z m1011 -9 c9 -23 -11 -38 -26 -20 -13 16 -7 36 10 36
5 0 12 -7 16 -16z m88 -268 c-18 -13 -18 -14 2 -20 19 -6 51 -62 57 -99 1 -9
8 -23 14 -29 7 -7 12 -22 12 -34 0 -12 7 -35 15 -50 8 -16 15 -36 15 -46 0 -9
18 -31 40 -48 39 -31 52 -60 27 -60 -7 0 -17 4 -22 9 -13 11 -132 35 -165 34
-56 -3 -178 -23 -206 -33 -50 -20 -64 -20 -64 -1 0 19 31 51 68 70 12 6 22 21
22 31 0 21 -15 27 -24 11 -8 -13 -78 -20 -98 -9 -13 6 -16 5 -12 -5 3 -9 -11
-17 -46 -26 -27 -7 -50 -18 -50 -24 0 -15 -41 -57 -56 -57 -7 0 -17 -6 -21
-12 -4 -7 -17 -18 -28 -24 -93 -50 -111 -60 -118 -71 -4 -7 -13 -18 -20 -25
-28 -28 -39 -100 -27 -168 8 -46 9 -65 1 -68 -14 -5 -14 -52 -1 -72 9 -13 11
-13 20 0 5 8 10 22 11 30 0 9 2 11 5 3 3 -7 0 -22 -6 -33 -9 -17 -17 -20 -37
-15 -20 5 -24 3 -20 -9 3 -8 -1 -17 -10 -20 -19 -8 -16 -12 -36 44 -21 59 -34
136 -48 290 -18 191 -15 283 9 313 7 7 9 17 5 20 -3 4 0 7 8 7 8 0 20 14 27
30 8 17 18 28 23 24 5 -3 9 2 9 10 0 9 5 16 10 16 6 0 10 -4 10 -9 0 -5 9 -11
20 -14 12 -3 18 -11 15 -19 -8 -19 17 -39 52 -43 106 -10 171 -19 190 -26 12
-5 25 -5 27 0 7 10 54 2 62 -10 3 -5 22 -9 43 -9 28 0 52 10 92 39 49 35 59
49 92 125 20 46 37 92 37 100 0 19 60 26 80 9 12 -11 12 -15 -5 -27z m935
-191 c7 -8 8 -15 2 -15 -5 0 -15 7 -22 15 -7 8 -8 15 -2 15 5 0 15 -7 22 -15z
m-309 -57 c46 -49 57 -69 66 -113 12 -64 9 -357 -4 -380 -10 -17 -12 -13 -12
30 0 55 -8 142 -17 193 -6 32 -24 45 -24 17 0 -27 -26 -16 -56 25 -16 22 -33
40 -38 40 -4 0 -30 11 -58 25 -27 14 -60 25 -72 25 -12 0 -27 5 -32 10 -6 6
-26 19 -44 29 -19 10 -45 33 -59 51 -25 31 -25 33 -4 26 13 -4 27 -1 36 9 9 8
31 15 49 16 18 0 49 7 68 14 19 7 66 14 103 14 64 1 70 -1 98 -31z m-1499
-410 c6 6 17 12 24 12 16 0 23 -43 10 -56 -16 -15 -55 -24 -61 -13 -3 4 -11 6
-18 3 -7 -2 -24 7 -37 21 l-23 25 31 0 c17 0 34 5 38 11 4 8 9 7 15 -2 6 -11
11 -11 21 -1z m328 -107 c3 -2 -5 0 -18 4 -13 4 -21 2 -20 -3 2 -6 -1 -10 -7
-11 -5 -1 -10 4 -9 9 1 6 2 17 3 27 1 14 3 14 24 -3 12 -10 24 -21 27 -23z
m176 -21 c5 -5 21 -9 34 -9 155 5 221 5 226 -2 2 -4 12 -5 22 -2 9 3 14 2 9
-2 -4 -5 -26 -8 -48 -6 -33 1 -42 -2 -46 -18 -3 -11 -14 -23 -24 -26 -11 -4
-19 -15 -18 -28 0 -12 3 -16 6 -9 7 17 23 15 23 -4 0 -18 -23 -44 -39 -44 -18
0 -13 -18 11 -42 17 -17 18 -20 4 -15 -10 4 -22 7 -27 7 -5 0 -9 7 -9 15 0 14
-3 14 -30 0 -38 -19 -39 -19 -50 9 -5 13 -26 32 -47 42 -36 17 -38 20 -37 64
2 68 16 94 40 70z m564 -25 c10 -12 9 -15 -8 -15 -29 0 -53 11 -46 21 8 14 40
11 54 -6z m100 -44 c0 -15 -29 -34 -60 -37 -25 -3 -30 0 -30 17 0 11 4 18 8
15 4 -2 14 -1 22 5 19 11 60 12 60 0z m-630 -131 c0 -5 -7 -10 -15 -10 -8 0
-15 5 -15 10 0 6 7 10 15 10 8 0 15 -4 15 -10z m1045 -1049 c7 -28 10 -51 5
-51 -4 0 -10 13 -13 29 -3 16 -9 42 -13 57 -12 50 7 18 21 -35z m-2322 38 c48
1 87 -1 87 -6 0 -10 -53 -43 -70 -43 -6 0 -23 -9 -37 -20 -14 -11 -30 -17 -35
-14 -6 4 -5 10 3 15 9 6 3 7 -16 4 -16 -3 -69 -7 -118 -8 -105 -4 -120 6 -85
54 l23 31 80 -8 c44 -4 119 -7 168 -5z m2356 -194 c-1 -22 -4 -15 -14 25 -17
68 -17 73 0 35 8 -16 14 -43 14 -60z m18 -102 c-3 -10 -5 -4 -5 12 0 17 2 24
5 18 2 -7 2 -21 0 -30z m927 -1170 c-3 -27 -7 -48 -8 -49 -14 -9 -284 -67
-346 -74 -341 -39 -623 -69 -626 -66 -1 1 -5 15 -9 33 -6 30 -5 32 32 42 83
22 350 72 703 131 126 21 166 26 223 28 l38 2 -7 -47z m-1757 -105 c-3 -8 -6
-5 -6 6 -1 11 2 17 5 13 3 -3 4 -12 1 -19z m198 -108 c3 -5 1 -10 -4 -10 -6 0
-11 5 -11 10 0 6 2 10 4 10 3 0 8 -4 11 -10z m2785 -250 c0 -5 -2 -10 -4 -10
-3 0 -8 5 -11 10 -3 6 -1 10 4 10 6 0 11 -4 11 -10z m940 -235 c0 -16 -35 -21
-44 -6 -8 12 4 21 26 21 10 0 18 -7 18 -15z m-5475 -135 c10 -11 16 -22 14
-24 -9 -9 -35 -10 -62 -3 -24 6 -26 10 -17 27 14 26 42 25 65 0z m183 -79 l21
-29 -39 19 c-26 13 -37 24 -34 33 8 20 27 11 52 -23z m5252 0 c0 -11 -4 -23
-10 -26 -6 -4 -10 5 -10 19 0 14 5 26 10 26 6 0 10 -9 10 -19z m-5372 -13 c-6
-18 -28 -21 -28 -4 0 9 7 16 16 16 9 0 14 -5 12 -12z m177 -38 c-3 -5 -10 -10
-16 -10 -5 0 -9 5 -9 10 0 6 7 10 16 10 8 0 12 -4 9 -10z m-296 -41 c11 -18
11 -23 -1 -30 -18 -11 -41 13 -32 34 8 23 16 21 33 -4z m5519 -26 c4 -28 -20
-30 -66 -7 -46 22 -39 36 16 32 40 -3 47 -6 50 -25z m-341 -109 c-3 -3 -12 -4
-19 -1 -8 3 -5 6 6 6 11 1 17 -2 13 -5z m-383 -24 c16 -6 27 -6 31 0 9 15 68
12 62 -2 -2 -7 -18 -12 -35 -12 -26 2 -33 -3 -41 -27 -10 -30 -50 -42 -52 -16
0 9 -2 9 -5 0 -4 -8 -13 -5 -30 10 l-25 22 21 17 c25 20 38 22 74 8z m353 -76
c-3 -3 -12 -4 -19 -1 -8 3 -5 6 6 6 11 1 17 -2 13 -5z m-167 -48 c0 -2 -9 -6
-20 -9 -11 -3 -18 -1 -14 4 5 9 34 13 34 5z m-2253 -217 c25 1 43 -25 43 -60
0 -22 -1 -22 -14 -4 -13 17 -14 16 -21 -22 -12 -72 -48 -60 -50 17 0 19 -4 46
-9 59 -7 21 -6 23 10 16 11 -4 29 -7 41 -6z m-80 -60 c-15 -20 -15 -20 -31 12
-16 31 -16 32 3 15 17 -16 19 -16 26 6 6 19 8 20 12 6 2 -10 -2 -27 -10 -39z
m160 29 c16 -20 22 -57 11 -64 -14 -9 -24 6 -31 44 -7 33 3 42 20 20z m2078
-9 c4 -6 5 -13 2 -16 -8 -7 -47 7 -47 18 0 13 37 11 45 -2z m-2085 -74 c0 -8
-4 -15 -10 -15 -5 0 -10 7 -10 15 0 8 5 15 10 15 6 0 10 -7 10 -15z m-110 -53
c0 -13 -4 -21 -10 -17 -5 3 -7 12 -4 19 3 8 1 17 -5 21 -6 3 -11 14 -11 23 1
28 30 -17 30 -46z m-110 33 c0 -8 -4 -15 -10 -15 -5 0 -10 7 -10 15 0 8 5 15
10 15 6 0 10 -7 10 -15z m51 -31 c-5 -16 -10 -21 -10 -12 -1 18 10 51 15 45 2
-1 -1 -16 -5 -33z m129 -19 c0 -2 -7 -5 -15 -9 -9 -3 -15 0 -15 9 0 9 6 12 15
9 8 -4 15 -7 15 -9z m-163 -17 c1 -13 7 -24 12 -26 5 -2 7 -10 4 -19 -4 -11
-2 -14 5 -9 21 13 13 -10 -11 -32 l-24 -22 -11 25 c-15 33 -15 45 1 78 15 33
22 34 24 5z"/>
<path d="M1424 7103 c2 -29 23 -44 51 -37 32 8 32 22 -1 30 -19 5 -22 9 -12
15 9 6 5 9 -13 9 -19 0 -26 -5 -25 -17z"/>
<path d="M1420 7040 c-11 -7 -4 -10 25 -10 29 0 36 3 25 10 -8 5 -19 10 -25
10 -5 0 -17 -5 -25 -10z"/>
<path d="M268 7523 c-10 -2 -31 -17 -48 -33 -33 -30 -84 -60 -105 -60 -16 0
-115 -92 -115 -108 0 -19 12 -14 50 21 19 17 64 52 100 76 36 25 67 48 70 51
3 4 20 15 38 25 17 11 32 23 32 27 0 4 -1 7 -2 7 -2 -1 -11 -3 -20 -6z"/>
<path d="M98 7468 c9 -9 15 -9 24 0 9 9 7 12 -12 12 -19 0 -21 -3 -12 -12z"/>
<path d="M40 7440 c-8 -5 -11 -12 -7 -16 4 -4 15 0 24 9 18 18 8 23 -17 7z"/>
<path d="M6290 7280 c-41 -16 -59 -18 -72 -10 -25 15 -62 12 -101 -6 -29 -14
-41 -15 -83 -3 -63 16 -224 17 -289 1 -27 -7 -66 -15 -85 -19 -50 -9 -80 -34
-96 -78 -13 -38 -12 -39 22 -73 19 -19 31 -38 27 -41 -10 -7 -14 -32 -14 -90
l-1 -43 -34 5 c-18 3 -36 1 -40 -4 -9 -15 24 -59 40 -53 30 12 73 -64 46 -81
-15 -9 -12 -18 16 -48 14 -15 22 -31 19 -36 -7 -13 -151 -45 -163 -37 -6 3
-29 8 -52 11 -47 6 -81 21 -93 41 -10 17 -36 18 -87 2 -22 -7 -41 -20 -43 -30
-3 -11 -15 -18 -30 -18 -21 0 -25 -6 -31 -40 -10 -66 2 -78 79 -74 36 1 85 6
110 9 98 15 374 22 400 11 43 -19 104 -1 173 52 35 26 41 42 16 42 -24 0 -114
31 -121 43 -3 5 9 23 27 38 27 24 42 29 89 30 171 4 214 9 241 26 97 62 169
114 195 139 26 27 29 36 26 86 -3 65 2 69 104 75 90 5 125 15 190 56 11 6 42
26 70 43 61 37 111 82 102 91 -4 3 -31 0 -62 -7 -53 -13 -101 -12 -355 5 -71
5 -94 2 -140 -15z m-554 -295 c5 -15 -28 -52 -53 -60 -21 -6 -23 -3 -23 28 0
20 6 38 13 41 19 8 60 2 63 -9z"/>
<path d="M2426 7073 c-4 -5 -26 -8 -48 -8 -39 0 -41 -1 -42 -33 -1 -25 4 -34
19 -37 38 -7 55 -2 55 17 0 10 7 30 16 43 16 24 15 33 0 18z"/>
<path d="M492 6748 c5 -15 28 -18 29 -3 0 6 -7 12 -17 13 -10 3 -15 -1 -12
-10z"/>
<path d="M205 6660 c-24 -16 -46 -20 -103 -19 -85 1 -102 -9 -102 -61 0 -36
23 -70 48 -70 6 0 27 -15 47 -34 28 -27 33 -36 22 -43 -8 -4 -17 -27 -20 -51
-4 -35 -2 -44 14 -52 25 -14 45 -3 94 53 63 69 67 70 251 62 164 -7 204 -1
204 29 0 27 -36 46 -86 45 -46 -1 -161 -23 -170 -32 -3 -2 -28 1 -56 8 -43 9
-53 16 -61 40 -7 21 -6 35 7 55 15 27 15 29 -13 59 -34 37 -37 37 -76 11z"/>
<path d="M357 6635 c-7 -6 -19 -14 -27 -18 -10 -4 -8 -6 7 -6 12 -1 25 -6 29
-12 7 -12 52 -7 99 11 27 10 28 12 12 22 -28 15 -106 18 -120 3z"/>
<path d="M978 6503 c-27 -7 -21 -23 7 -23 14 0 25 4 25 9 0 13 -12 18 -32 14z"/>
<path d="M1801 6432 c-60 -42 -185 -129 -278 -192 -497 -341 -642 -444 -687
-486 -6 -6 -27 -18 -46 -27 -19 -10 -52 -33 -73 -52 -21 -20 -73 -59 -115 -87
-43 -28 -78 -55 -80 -60 -2 -4 -9 -8 -15 -8 -7 0 -34 -17 -62 -38 -68 -50
-232 -162 -239 -162 -3 0 -14 -7 -23 -15 -36 -29 -158 -117 -170 -122 -13 -5
-19 -93 -6 -93 8 0 68 45 115 86 20 18 58 39 85 48 88 26 117 44 189 113 67
64 175 143 344 252 41 26 98 67 125 90 67 56 211 104 271 91 51 -12 121 6 140
35 8 12 54 41 103 64 50 24 102 55 118 70 39 39 63 70 63 80 0 14 -35 23 -64
15 -17 -4 -26 -2 -26 5 0 15 101 111 116 111 7 0 14 4 16 8 4 12 119 89 208
142 85 49 135 92 157 133 18 36 12 52 -26 65 -28 10 -37 6 -140 -66z"/>
<path d="M6311 6321 c-17 -11 -9 -72 14 -108 29 -44 119 -71 199 -59 33 5 55
17 81 43 43 43 35 59 -21 44 -105 -28 -171 -14 -221 44 -27 32 -42 42 -52 36z"/>
<path d="M723 5982 c-13 -2 -23 -9 -23 -17 0 -7 -7 -15 -15 -19 -27 -10 -17
-44 18 -60 58 -26 80 -26 132 -2 56 26 124 89 86 79 -11 -3 -28 1 -37 8 -15
13 -112 19 -161 11z"/>
<path d="M277 5913 c-14 -13 -6 -24 15 -21 27 4 36 28 11 28 -11 0 -23 -3 -26
-7z"/>
<path d="M22 5903 c-35 -7 -16 -21 36 -28 26 -3 60 -8 75 -10 25 -4 28 -2 25
18 -3 20 -9 22 -58 23 -30 0 -65 -1 -78 -3z"/>
<path d="M6355 5023 c-31 -34 -39 -76 -32 -158 6 -65 23 -115 44 -128 7 -4 19
-15 28 -23 10 -10 41 -18 81 -22 92 -7 150 22 193 98 13 23 13 24 -2 11 -10
-7 -17 -10 -17 -5 0 5 -7 -1 -15 -12 -10 -15 -30 -23 -66 -28 -45 -6 -56 -4
-90 19 -21 14 -41 36 -45 50 -3 14 -15 30 -25 35 -16 9 -39 65 -39 96 0 6 11
27 24 47 13 19 22 38 18 41 -12 13 -32 5 -57 -21z"/>
<path d="M586 5008 c-16 -50 -15 -59 7 -56 17 2 22 10 22 32 0 30 -22 48 -29
24z"/>
<path d="M6623 4993 c-18 -7 -16 -30 3 -37 8 -3 13 -2 10 3 -3 5 1 12 10 15 8
3 12 10 9 16 -7 11 -13 11 -32 3z"/>
<path d="M7630 4573 c-14 -9 -27 -19 -30 -23 -17 -19 -287 -205 -463 -318 -74
-48 -74 -48 -60 -160 4 -34 9 -49 14 -40 6 9 9 5 9 -12 0 -14 3 -20 8 -14 21
33 83 24 88 -12 4 -26 -20 -49 -68 -65 l-43 -14 40 -7 c22 -4 101 -7 176 -7
156 -1 153 -3 143 82 -9 78 4 89 87 76 37 -5 89 -9 115 -7 l49 3 -3 45 c-1 25
-4 106 -5 180 -5 340 -3 330 -57 293z m-240 -487 l25 -14 -38 -36 c-36 -34
-77 -48 -77 -26 0 6 -12 10 -26 10 -22 0 -24 3 -19 23 10 30 14 34 55 45 47
14 51 13 80 -2z"/>
<path d="M764 4405 c-22 -28 -56 -55 -83 -67 -25 -11 -55 -25 -66 -31 -20 -11
-88 -49 -155 -86 -19 -10 -51 -33 -70 -50 -19 -17 -41 -31 -47 -31 -7 0 -13
-4 -13 -10 0 -5 -6 -7 -13 -4 -8 3 -20 -3 -28 -12 -20 -24 -27 -346 -7 -360 8
-5 101 -7 228 -4 118 3 238 2 267 -3 29 -4 63 -3 77 3 24 9 26 14 26 70 0 77
-23 105 -78 97 -39 -7 -68 5 -94 38 -10 13 -43 29 -83 40 -51 13 -65 21 -60
33 6 16 -26 52 -47 52 -8 0 -9 3 -3 8 6 4 28 30 48 59 21 29 52 61 70 72 18
11 42 33 54 50 17 22 34 31 68 36 63 10 98 45 99 99 1 37 -1 41 -25 44 -21 2
-34 -6 -65 -43z"/>
<path d="M793 4185 c-33 -175 -33 -166 -4 -176 14 -6 36 -8 48 -4 21 5 23 11
23 73 0 72 -15 142 -30 142 -6 0 -10 -6 -11 -12 -1 -7 -4 -2 -8 12 -6 21 -9
15 -18 -35z"/>
<path d="M0 3975 l0 -235 59 0 c35 0 63 5 68 13 9 11 10 79 1 320 -3 75 -6 91
-23 102 -11 8 -25 19 -32 25 -7 5 -26 10 -43 10 l-30 0 0 -235z"/>
<path d="M6814 4002 c-93 -61 -122 -87 -110 -100 11 -10 177 -12 201 -2 18 7
20 15 17 84 -2 42 -7 76 -12 76 -4 0 -48 -26 -96 -58z"/>
<path d="M4033 3825 c0 -33 2 -45 4 -27 2 18 2 45 0 60 -2 15 -4 0 -4 -33z"/>
<path d="M7084 3618 c3 -84 6 -266 7 -404 0 -138 3 -264 8 -280 7 -28 10 -29
71 -32 35 -2 93 2 129 7 41 6 87 7 121 1 30 -4 87 -13 125 -20 39 -6 96 -17
127 -24 32 -7 63 -9 70 -5 18 11 13 234 -7 314 -12 47 -23 67 -53 93 -36 32
-166 112 -181 112 -4 0 -16 9 -27 21 -17 18 -20 42 -24 193 l-5 171 -184 3
-184 2 7 -152z"/>
<path d="M536 3643 c-161 -2 -244 -7 -253 -15 -21 -17 -14 -835 6 -848 21 -12
43 -1 181 94 69 48 189 129 267 181 87 58 144 103 148 116 8 23 -3 431 -11
462 -4 13 -15 17 -52 15 -26 -2 -155 -4 -286 -5z"/>
<path d="M23 3623 l-23 -4 0 -425 0 -425 73 3 72 3 -3 420 c-2 231 -5 421 -7
423 -7 7 -88 11 -112 5z"/>
<path d="M4081 3384 c0 -11 3 -14 6 -6 3 7 2 16 -1 19 -3 4 -6 -2 -5 -13z"/>
<path d="M3926 2793 c-6 -14 -5 -15 5 -6 7 7 10 15 7 18 -3 3 -9 -2 -12 -12z"/>
<path d="M0 2580 c0 -23 8 -25 33 -6 24 18 21 26 -8 26 -18 0 -25 -5 -25 -20z"/>
<path d="M7980 2500 c0 -5 5 -10 10 -10 6 0 10 5 10 10 0 6 -4 10 -10 10 -5 0
-10 -4 -10 -10z"/>
<path d="M7426 2341 c-3 -5 1 -11 9 -15 8 -3 15 -1 15 4 0 13 -18 22 -24 11z"/>
<path d="M6972 2220 c-17 -7 -22 -17 -20 -32 3 -21 8 -23 72 -23 54 0 71 4 80
17 7 11 7 21 1 27 -15 14 -107 22 -133 11z"/>
<path d="M7580 50 c-346 -5 -426 -9 -320 -15 49 -3 341 -6 558 -5 155 0 182 2
182 15 0 9 -8 14 -17 13 -10 -2 -191 -5 -403 -8z"/>
<path d="M7015 30 c3 -5 24 -10 46 -10 24 0 38 4 34 10 -3 6 -24 10 -46 10
-24 0 -38 -4 -34 -10z"/>
<path d="M813 3 c9 -2 25 -2 35 0 9 3 1 5 -18 5 -19 0 -27 -2 -17 -5z"/>
</g>
</svg>
