<?xml version="1.0" standalone="no"?>
<!DOCTYPE svg PUBLIC "-//W3C//DTD SVG 20010904//EN"
 "http://www.w3.org/TR/2001/REC-SVG-20010904/DTD/svg10.dtd">
<svg version="1.0" xmlns="http://www.w3.org/2000/svg"
 width="600.000000pt" height="600.000000pt" viewBox="0 0 600.000000 600.000000"
 preserveAspectRatio="xMidYMid meet">
<metadata>
Created by potrace 1.16, written by Peter Selinger 2001-2019
</metadata>
<g transform="translate(0.000000,600.000000) scale(0.150000,-0.200000)"
fill="#000000" stroke="none">
<path d="M3312 1928 c-46 -4 -107 -14 -135 -21 l-52 -13 -3 -215 c-3 -248 7
-301 80 -409 56 -84 200 -190 259 -190 61 0 213 113 269 200 62 96 73 151 78
392 l4 217 -42 11 c-115 31 -311 43 -458 28z m136 -87 c11 42 14 43 26 14 l12
-30 8 35 8 35 12 -35 c12 -33 13 -33 20 -12 10 31 26 28 27 -5 0 -28 1 -28 11
-5 15 30 28 28 28 -5 0 -26 0 -26 21 -7 l21 19 -7 -35 -7 -35 26 24 26 25 -6
-33 -7 -33 28 18 28 18 -17 -33 -17 -32 30 16 c35 18 38 14 15 -20 -18 -28
-17 -29 22 -14 28 10 28 10 9 -10 -17 -20 -28 -21 -305 -21 -209 0 -289 3
-298 12 -20 20 -13 28 14 17 34 -12 39 -7 14 16 -26 23 -26 39 -1 25 31 -16
43 -13 31 9 -16 30 -12 33 16 14 27 -17 27 -17 15 4 -18 35 -13 45 16 26 l26
-17 -7 29 -8 30 26 -24 26 -25 -6 35 -7 34 27 -24 26 -24 1 29 c0 28 1 28 11
7 6 -13 15 -23 20 -23 5 0 6 5 3 10 -3 6 -3 20 0 31 7 20 8 19 23 -11 10 -20
18 -27 20 -19z m-100 -328 l114 -93 106 87 c59 48 131 107 160 131 l52 44 0
-103 c0 -114 -13 -177 -53 -255 -44 -88 -44 -88 -157 5 -54 44 -103 81 -108
81 -5 0 -53 -36 -107 -80 -54 -44 -101 -80 -105 -80 -13 0 -67 92 -85 145 -12
32 -20 94 -23 170 l-5 120 49 -40 c27 -22 100 -81 162 -132z m204 71 l3 -54
-30 0 c-17 0 -25 3 -18 8 6 4 -15 7 -48 7 -32 0 -51 -3 -42 -7 12 -4 5 -7 -19
-7 l-38 -1 0 49 c0 30 5 51 13 54 6 2 49 5 94 5 l81 1 4 -55z"/>
<path d="M3222 1477 c-32 -34 -30 -89 4 -116 37 -29 70 -26 105 8 33 33 35 50
14 90 -24 48 -87 57 -123 18z"/>
<path d="M180 1900 c0 -5 12 -10 28 -10 29 0 34 -12 178 -412 22 -59 43 -106
49 -105 5 2 39 87 75 190 36 102 67 184 69 182 2 -2 34 -86 71 -187 37 -100
72 -184 78 -186 5 -1 48 113 94 255 81 249 84 258 111 261 55 7 25 22 -43 22
-40 0 -70 -4 -70 -10 0 -5 14 -10 30 -10 17 0 30 -3 30 -6 0 -12 -113 -359
-119 -366 -5 -6 -72 167 -139 360 -3 8 7 12 32 12 20 0 36 5 36 10 0 6 -45 10
-115 10 -70 0 -115 -4 -115 -10 0 -5 16 -10 34 -10 33 0 36 -2 52 -54 l17 -55
-43 -123 c-23 -68 -46 -129 -50 -136 -4 -8 -31 54 -67 155 -84 231 -80 213
-44 213 17 0 31 5 31 10 0 6 -42 10 -105 10 -63 0 -105 -4 -105 -10z"/>
<path d="M1712 1817 c-15 -41 -64 -87 -93 -87 -10 0 -19 -4 -19 -10 0 -5 14
-10 30 -10 l30 0 0 -150 c0 -137 2 -152 20 -170 30 -30 100 -27 137 4 15 13
25 27 21 31 -3 4 -16 -3 -28 -15 -12 -12 -29 -20 -38 -18 -32 6 -42 48 -42
186 l0 132 44 0 c61 0 68 18 9 22 l-48 3 -5 59 -5 60 -13 -37z"/>
<path d="M1376 1739 c-64 -18 -92 -80 -61 -139 12 -24 34 -40 90 -65 85 -39
111 -68 95 -109 -12 -34 -49 -50 -92 -42 -36 7 -74 41 -102 91 l-17 30 6 -50
c9 -76 12 -80 47 -81 18 -1 56 -3 84 -4 86 -3 133 35 134 107 0 56 -33 94
-107 122 -72 27 -93 46 -93 82 0 70 120 62 152 -11 19 -45 30 -36 22 18 -3 26
-7 47 -8 48 -7 7 -128 10 -150 3z"/>
<path d="M2444 1740 c-12 -4 -35 -25 -53 -46 l-31 -39 0 44 c0 35 -3 42 -16
37 -9 -3 -38 -6 -65 -6 -27 0 -49 -4 -49 -10 0 -5 14 -10 30 -10 l30 0 0 -160
0 -160 -30 0 c-16 0 -30 -4 -30 -10 0 -6 38 -10 94 -10 53 0 98 4 101 10 4 6
-9 10 -31 10 l-37 0 5 108 c6 119 25 180 66 212 33 27 40 25 34 -7 -6 -33 21
-57 49 -42 29 15 25 63 -6 77 -30 14 -32 14 -61 2z"/>
<path d="M2776 1736 c-22 -8 -50 -27 -62 -43 l-23 -28 -1 39 c0 31 -3 37 -16
32 -9 -3 -38 -6 -65 -6 -27 0 -49 -4 -49 -10 0 -5 14 -10 30 -10 l30 0 0 -160
0 -160 -30 0 c-16 0 -30 -4 -30 -10 0 -6 38 -10 95 -10 57 0 95 4 95 10 0 6
-14 10 -31 10 l-31 0 4 124 c3 99 8 129 23 152 26 41 45 53 81 54 57 0 64 -19
64 -183 l0 -147 -30 0 c-16 0 -30 -4 -30 -10 0 -6 38 -10 95 -10 57 0 95 4 95
10 0 6 -13 10 -30 10 l-30 0 0 153 c0 146 -1 154 -22 174 -31 29 -84 36 -132
19z"/>
<path d="M981 1718 c-111 -75 -104 -275 12 -335 40 -20 124 -20 164 0 34 18
79 74 68 85 -3 4 -11 -2 -17 -13 -42 -73 -137 -94 -187 -41 -11 12 -25 46 -31
75 -18 98 -27 91 115 91 119 0 125 1 125 20 0 32 -25 83 -54 110 -22 20 -40
25 -94 28 -57 3 -72 0 -101 -20z m122 3 c25 -10 47 -55 47 -97 0 -23 -2 -24
-85 -24 l-84 0 6 33 c15 82 54 111 116 88z"/>
<path d="M1965 1730 c-11 -4 -31 -18 -44 -30 -75 -72 -67 -253 14 -306 69 -45
175 -35 225 22 16 19 30 40 30 47 0 6 -14 -5 -30 -25 -38 -46 -87 -62 -138
-45 -47 15 -72 62 -72 135 l0 52 120 0 120 0 0 25 c0 43 -27 94 -62 115 -35
21 -124 27 -163 10z m115 -18 c15 -12 24 -33 27 -65 l6 -47 -83 0 -83 0 6 42
c10 74 77 111 127 70z"/>
</g>
</svg>
