<svg id="SvgjsSvg1001" width="288" height="288" xmlns="http://www.w3.org/2000/svg" version="1.1" xmlns:xlink="http://www.w3.org/1999/xlink" xmlns:svgjs="http://svgjs.com/svgjs"><defs id="SvgjsDefs1002"></defs><g id="SvgjsG1008" transform="matrix(1,0,0,1,0,0)"><svg xmlns="http://www.w3.org/2000/svg" width="288" height="288" enable-background="new 0 0 864 864" viewBox="0 0 864 864"><path d="M675.9546 477.9336c-2.3276-13.306-4.6392-26.8433-6.8743-39.935l-1.2775-7.4788c-4.2958-25.1368-8.5881-50.2741-12.878-75.4114l-23.9825-140.6496c-.4979-2.918-1.0046-5.834-1.5333-8.8742l-.6671-3.8448c-.0641.0401-.1252.0782-.1849.1154-.3688.2304-.6544.4079-.9244.6065L616.9803 210.3c-10.3112 7.5903-20.6229 15.1802-30.959 22.7368-1.1602.8486-1.5974 1.7021-1.6125 3.1493-.8168 76.4776-1.6747 152.791-2.4059 217.3556-.225 19.857-.4603 39.7144-.6956 59.5719l-.4675 39.7144c-.0064.5283.0161 1.0569.0421 1.6713.0039.0978.0083.1976.0122.3003.0225-.0146.0445-.0293.066-.0435.3301-.2172.5679-.3732.7899-.5488 4.3711-3.4545 8.7387-6.9144 13.1064-10.3733l56.9396-45.0985c7.6236-6.0409 15.2472-12.0818 22.8904-18.0982C675.7232 479.821 676.1776 479.2082 675.9546 477.9336zM281.9218 554.1917c.2147.1702.4861.3066.83.4793.021.0103.0421.021.0636.0318l.0005-.2617c.0015-.5424.0029-.9949-.0024-1.4473l-1.3392-117.5244c-.3394-29.7451-.6794-59.4902-1.0129-89.2353-.4377-38.9774-.8286-74.127-1.1797-109.6015-.0181-1.8131-.494-2.7972-1.8175-3.7612-10.2021-7.4299-20.5344-15.0384-30.5262-22.3959l-10.7113-7.8843c-.3199-.2348-.6588-.4431-1.0345-.6745-.0523-.0323-.1051-.0646-.1585-.0978-.0108.0337-.0215.0675-.0323.1003-.1198.3688-.2235.6872-.2773 1.0027-2.3741 13.797-4.7448 27.5945-7.0983 41.3945-1.9975 11.713-3.9911 23.4259-5.9846 35.1394-2.3105 13.5764-4.621 27.1534-6.9379 40.7293-2.2728 13.3182-4.552 26.6354-6.8313 39.9521-2.0224 11.8152-4.0444 23.6304-6.0619 35.446l-3.8443 22.5392c-3.3587 19.7044-6.7178 39.4083-10.1131 59.1058-.2944 1.707.0225 2.5751 1.3039 3.5739 8.7842 6.845 17.657 13.8777 26.2373 20.6792l30.4264 24.1092C257.8527 535.126 269.8856 544.661 281.9218 554.1917zM229.5289 203.3626c.0367-.2137.0333-.4348.0323-.6544l-.0005-.0978-.4402.291c-.5023.3297-1.0335.6784-1.55 1.0477-6.2663 4.4826-12.5307 8.9681-18.7951 13.4537l-19.6237 14.0489c-14.7958 10.5924-29.5915 21.1844-44.4088 31.7465-.9303.6632-1.3881 1.412-1.5803 2.5844-3.613 21.985-7.2436 43.9672-10.8737 65.9493l-12.744 77.1825c-.7151 4.3804-1.4546 8.9094-2.2572 13.3519-.2661 1.4737.0836 2.2704 1.3357 3.0451 1.8581 1.1489 3.5655 2.4558 4.9908 3.5832 13.8953 10.9886 27.7828 21.987 41.6703 32.9859l15.7319 12.4584c.4676.3702.9435.7302 1.5289 1.1729l.4915.3727 3.0989-18.1622C200.6515 372.6465 215.0927 288.0052 229.5289 203.3626zM746.3679 422.2877l-15.4658-93.6328c-3.4418-20.8053-6.8831-41.6107-10.2921-62.4214-.2436-1.4883-.8393-2.4484-2.0557-3.3137-10.4677-7.449-20.9124-14.9303-31.3567-22.412l-11.2161-8.032c-13.4869-9.6524-26.9753-19.3023-40.475-28.9366-.1247-.089-.2465-.1912-.3702-.2954-.3399-.2866-.6432-.5424-1.1029-.5752l46.5995 273.1218.515-.381c.6168-.4539 1.1386-.8378 1.6463-1.2394 3.8561-3.0486 7.7087-6.1015 11.5613-9.1545 7.7366-6.1304 15.4737-12.2612 23.2367-18.3579 9.4103-7.3898 18.8347-14.6935 28.0117-21.7077C746.6237 424.1707 746.563 423.4664 746.3679 422.2877zM636.2939 197.1065l-.5703.2939 208.8761 149.3585c-.0499-.4886-.1913-.9244-.3825-1.3861-11.3711-27.5378-22.7427-55.0746-34.1485-82.5973-.3707-.8941-.9459-1.7392-1.5783-2.3193-12.4642-11.4449-25.1691-23.0469-37.4557-34.2668l-.2876-.2626c-15.1323-13.8181-30.2694-27.6312-45.4066-41.4449l-7.8622-7.1663c-4.4357-4.0385-8.8718-8.077-13.2811-12.1448-.9278-.8559-1.523-.9503-2.3618-.3771-.2871.1971-.5992.3331-.9005.4646-.1389.0602-.2773.1203-.4118.1868l-62.506 30.7835C637.4795 196.4932 636.9469 196.7685 636.2939 197.1065zM18.9557 346.777l-.0323.0939 209.0018-149.4455c-.1668-.0915-.3243-.178-.4749-.2612-.5854-.3218-1.0623-.5845-1.5504-.8246l-10.8037-5.3219c-17.2329-8.4898-34.4659-16.9796-51.7126-25.442-.5732-.2812-1.0266-.5253-1.3974-.7244-.5889-.3169-.9254-.4979-1.2272-.4979-.4025 0-.7439.3208-1.5402 1.0692-.2607.245-.5639.5297-.9225.8564-9.424 8.5862-18.8338 17.1889-28.2436 25.7912-5.427 4.9619-10.8541 9.9234-16.2841 14.8819l-15.7676 14.3942c-14.2132 12.9734-28.4265 25.9468-42.6187 38.9422-.7381.6754-1.3949 1.6321-1.8508 2.693-1.6038 3.7348-3.1757 7.558-4.6959 11.2561l-1.5172 3.6849c-9.2846 22.4766-18.5687 44.9537-27.8474 67.4323C19.279 345.8208 19.1176 346.2986 18.9557 346.777zM486.6102 532.0872c-11.1984-9.916-22.8649-20.325-34.6752-30.9365-1.2785-1.1494-2.4944-1.6365-4.0938-1.5984-9.8524.0797-19.8041.0787-29.5783-.0005-.021 0-.0425-.0005-.0636-.0005-1.5671 0-2.7908.4686-4.0806 1.5587-13.6219 11.5179-25.6709 21.6422-36.8351 30.9508-1.188.9909-1.5157 1.8874-1.2511 3.4252 1.6737 9.7497 3.3244 19.6701 4.9213 29.2643l1.3308 7.9929c1.1137 6.6723 2.2234 13.3456 3.3332 20.0184 2.5732 15.4697 5.1463 30.939 7.763 46.4014.3972 2.3453.7679 4.6959 1.1386 7.047 1.144 7.249 2.3266 14.7449 4.2943 21.9547.1228.45.2495.8985.3761 1.3475l10.166-94.7959.2636-.0792c.2817-.0847.5346-.1639.7689-.2377.4695-.1472.8677-.2714 1.2722-.3693 1.9491-.47 3.8986-.9357 5.8487-1.4008 3.5254-.8417 7.0514-1.684 10.5709-2.5511 2.4538-.606 4.869-.604 7.3844.0059 3.2917.7972 6.5872 1.5798 9.8828 2.3618 2.2582.5361 4.5164 1.0726 6.7736 1.6131.4079.0978.808.2303 1.2589.38.2167.0724.4456.1487.6935.2264l.2592.0817.0289.27c.5273 4.9169 1.0648 9.8295 1.6023 14.74 1.187 10.8453 2.4147 22.0599 3.4956 33.0974 1.8141 18.5291 4.2053 39.823 5.273 46.0126.1795-.7454.3604-1.4824.5399-2.2136.6867-2.7977 1.3358-5.4403 1.8072-8.1426 1.4316-8.2061 2.8084-16.5643 4.1403-24.6472.604-3.6633 1.2076-7.3267 1.818-10.9886l1.3534-8.1196c4.4234-26.5322 8.8468-53.0645 13.306-79.5912C487.9254 533.8055 487.6412 532.9999 486.6102 532.0872zM351.6827 460.595l-3.3391-3.0285c-9.7199-8.818-19.4403-17.6365-29.1685-26.4452-2.8876-2.6147-2.9356-2.7385-2.5854-6.6376.3565-3.9642.6931-7.831 1.0295-11.6973.5292-6.0815 1.0765-12.3703 1.66-18.5526.1536-1.6287-.2088-2.9013-1.2115-4.2556-2.335-3.1552-4.7589-6.5598-7.629-10.7147-.8251-1.1964-1.5182-2.4607-2.0591-3.7573-1.7485-4.1887-3.4819-8.3832-5.2158-12.5777-2.1784-5.272-4.3569-10.544-6.5657-15.8038-.5952-1.4179-.6221-2.6411-.0905-4.0894 2.3188-6.3172 4.6073-12.6457 6.8963-18.9736 1.6204-4.4802 3.2408-8.9603 4.8714-13.4366.4348-1.1929.5185-2.2469.2715-3.4178-.3624-1.7202-.6818-3.4496-1.0012-5.1791-.3702-2.0048-.7527-4.0781-1.2002-6.0976-1.3719-6.1964-2.1031-11.4386-1.212-16.8788.1883-1.1489-.0631-2.1897-.8398-3.4804-3.2031-5.317-6.372-10.6555-9.5409-15.9936l-4.0307-6.7833c-1.5123-2.5419-3.0315-5.0793-4.5506-7.6172l-1.7784-2.9723c-.022.3375-.044.6754-.0401 1.0129 1.1709 103.1048 2.3467 206.2139 3.5284 309.3186.0034.0015.0063.0029.0098.0044l3.8106-5.3972c20.1959-28.6064 40.4173-57.2472 60.601-85.8962l-.1776-.1922C351.9438 460.8567 351.8191 460.7192 351.6827 460.595zM579.3749 242.0861l-.2191.3502c-.3316.5277-.6627 1.055-.9806 1.5906-1.6097 2.7086-3.2061 5.4256-4.802 8.1425-3.8077 6.482-7.7449 13.1842-11.8137 19.6564-2.5565 4.0664-3.4125 7.6378-2.7761 11.5809.337 2.0855.0489 4.309-.3126 6.4008-.8618 4.9927-1.8723 10.254-3.277 17.0588-.29 1.4052-.1859 2.67.337 4.1001 1.884 5.1541 3.749 10.3146 5.6144 15.4756 2.0151 5.5757 4.0307 11.1515 6.0688 16.7184.5009 1.367.471 2.5267-.0993 3.8786l-.605 1.4336c-3.1494 7.4627-6.4063 15.1787-9.4524 22.8287-2.0283 5.0925-4.2498 9.0772-6.9902 12.5386-.8912 1.1254-1.7305 2.3311-2.5419 3.4971-.6818.9802-1.3871 1.9936-2.1246 2.9625-.8354 1.0966-1.1353 2.1765-1.0027 3.611.6182 6.6782 1.1993 13.3598 1.7798 20.0419.3404 3.9157.6808 7.8315 1.0291 11.7467.1384 1.5598.1306 2.9601-1.3724 4.3031-8.0853 7.2226-16.2488 14.6314-24.1434 21.7958l-6.4962 5.8932c-.8901.807-1.7696 1.6263-2.7003 2.4934l-1.1303 1.0506c6.7051 9.5013 13.3994 18.9932 20.0903 28.4798 14.8041 20.9897 29.5857 41.9487 44.3956 62.8851L579.3749 242.0861zM18 354.2455l94.4633 66.6482c8.437-51.0014 16.7864-101.4917 25.1569-152.2109C127.6421 275.2588 25.0435 348.6346 18 354.2455z" fill="#eef1ef" class="color000 svgShape"></path><polygon points="725.996 268.326 751.216 420.893 846 354.021 726.04 268.303" fill="#eef1ef" class="color000 svgShape"></polygon><path d="M396.2084 298.1375c.4612 10.5876.9836 21.3502 1.4888 31.7592l.2783 5.7455c.0191.3947.0724.7879.1311 1.2218.0156.1149.0313.2323.0469.3531 21.4333 1.0125 44.4108 1.6938 67.3828-.0724.0127-.0929.0264-.1849.0396-.2768.0592-.405.1174-.8002.1364-1.1978l.2573-5.2935c.5131-10.5567 1.0437-21.4725 1.5128-32.2112.0641-1.4536-.0915-2.9273-.4495-4.2615-10.9265-40.7464-21.8921-81.4821-32.8573-122.2178l-.828-3.075c-.133-.495-.2959-.9821-.4612-1.4785l-.1394-.4245h-1.8395l-.1697.5727c-.1624.5453-.3091 1.0374-.4421 1.5323l-2.92 10.8448c-10.2491 38.0696-20.4987 76.1387-30.714 114.2176C396.3018 295.2166 396.1453 296.6907 396.2084 298.1375zM448.9397 432.0311c-.9503-.9489-1.8468-1.3074-3.2061-1.324l-2.6049.0181c-6.7653.0484-13.7603.0983-20.6391-.0939-.1379-.0039-.2739-.0059-.4084-.0059-2.8612 0-4.9433.8779-7.1042 2.9732-12.8369 12.4471-26.0328 24.9514-38.7944 37.0439l-3.1376 2.9727c-1.0125.9596-1.3944 1.9065-1.3626 3.3777.1404 6.5002.2519 13.0008.3629 19.5019.0787 4.6054.1575 9.2102.247 13.8156.0298 1.5744.159 3.1254.3835 4.6098.495 3.2745 1.0594 6.5959 1.6057 9.8084l.2597 1.5269c.0518.3067.1506.6094.2758.9929.0108.0323.021.0655.0323.0988l.2054-.156c.4064-.3057.7645-.5747 1.1073-.8623l3.9558-3.3181c10.726-8.9974 21.4524-17.9944 32.1613-27.0125 1.3372-1.1269 2.5355-1.6028 4.0419-1.595 10.2711.0597 21.247.0616 33.5528.0074 1.4629-.0225 2.6783.4554 3.8389 1.4976 7.8354 7.0357 15.6947 14.045 23.5541 21.0538l4.9663 4.4297c1.5358 1.37 3.0769 2.7336 4.7389 4.2043l1.9319 1.7104c.0445-.2196.0866-.4284.1272-.6285.156-.7669.2861-1.4042.382-2.0464.2035-1.3602.4417-2.7189.6803-4.0781.536-3.0579 1.0907-6.2199 1.211-9.332.2778-7.2005.3884-14.5312.4955-21.6202.0636-4.2087.1272-8.4174.224-12.6252.0342-1.4697-.3952-2.5076-1.4815-3.5831C477.3305 460.3211 463.7223 446.7911 448.9397 432.0311z" fill="#eef1ef" class="color000 svgShape"></path><path d="M389.1781 451.2141c.5297-.4749 1.0599-.9503 1.5749-1.4414l5.0798-4.8382c6.078-5.7866 12.363-11.7702 18.4929-17.7069 1.2526-1.2134 2.5742-1.7084 4.4513-1.7094 9.7125.0797 19.2651.0934 28.3937.0421 1.771-.0093 3.0036.5008 4.2033 1.7084 6.0785 6.1143 12.3053 12.2852 18.3271 18.2532l3.7969 3.7636c.2885.2861.604.5449 1.03.8946.0289.024.0582.0479.088.0729l-8.8014-107.6974c-3.431.1135-6.8347.2509-10.2193.3874-8.1337.3287-15.8214.6187-23.6768.6295-7.9195-.0093-15.996-.3512-23.8065-.6813-3.3689-.1428-6.7486-.2856-10.1425-.405l-9.2225 109.1158L389.1781 451.2141zM460.4492 678.5341c-1.7593-15.9427-3.4893-32.1583-5.162-47.8403l-1.8151-16.9879c-.312-2.9121-.6275-5.8237-.9591-8.8801l-.4177-3.8575c-.0689.0572-.1355.1115-.199.1638-.3981.3267-.6931.5688-.9689.8315-1.0917 1.0379-2.198 2.0616-3.3044 3.0858-2.6358 2.4387-5.3605 4.9609-7.8192 7.6339-2.8265 3.0745-5.9435 4.2894-9.8118 3.8287-1.4189-.1697-2.5071-.4769-3.5455-1.483-3.6096-3.4965-7.3194-7.0122-10.9069-10.4119l-2.6715-2.5326c-.3164-.3008-.6515-.582-1.0486-.9161l-.1487-.1262c-.0044.02-.0088.0401-.0132.0601-.0871.3942-.1575.7102-.1927 1.0306-.1849 1.6801-.3614 3.3616-.5375 5.0426l-1.8116 16.9106c-2.0973 19.4995-4.1945 38.9994-6.2659 58.5018-.1037.9781-.0298 2.0493.2133 3.0984 1.2144 5.2377 2.5017 10.5528 3.7465 15.6923l.6168 2.5492c.1076.4451.2499.8818.3957 1.3293.0396.1218.0792.2446.1188.3679h47.8311l.1448-.5048c.1506-.52.293-1.0105.4128-1.5065.361-1.5001.7057-3.004 1.0506-4.5085.7439-3.2466 1.5133-6.6038 2.4455-9.8613C460.7266 686.0941 460.9193 682.7912 460.4492 678.5341z" fill="#eef1ef" class="color000 svgShape"></path><polygon points="349.174 262.792 408.553 222.929 342.247 186.877 314.76 219.452" fill="#eef1ef" class="color000 svgShape"></polygon><polygon points="521.433 186.881 455.205 222.997 514.512 262.79 548.926 219.449" fill="#eef1ef" class="color000 svgShape"></polygon><path d="M584.396 227.8548c.4108-.2626.6906-.4412.9572-.6373l12.0774-8.8825c9.9615-7.3282 19.923-14.6564 29.8972-21.967 1.5084-1.1059 3.0016-2.0258 4.4366-2.735 14.7918-7.312 29.5949-14.6021 44.3975-21.8916l14.7297-7.2553c.6447-.3174 1.282-.651 1.9193-.9841l.4285-.223-110.6966-4.9027 1.5818 69.6523C584.2214 227.9663 584.3114 227.909 584.396 227.8548zM172.9498 164.5574l14.2984 7.0416c15.0892 7.4304 30.1785 14.8608 45.2638 22.3.832.4104 1.9124.9733 2.8876 1.6903 10.5127 7.7292 21.0166 15.4717 31.5201 23.2137l10.8027 7.9611c.4358.3213.8794.6324 1.4434 1.0281l.3898.2739 1.5818-69.6909-110.7328 4.9052.5933.2988C171.6474 163.9079 172.2969 164.236 172.9498 164.5574zM577.418 159.2487c-.0107-.0616-.0215-.1252-.0328-.1912L508.63 177.8139c.3277.1091.6564.2142.9914.2905l2.6485.6079c2.7238.629 5.5405 1.279 8.3264 1.8175 1.8561.358 3.2447 1.1895 4.5037 2.6954 8.3934 10.0432 17.5875 20.957 28.1076 33.3649 1.0359 1.2218 1.5446 2.534 1.6492 4.2552.8613 14.2059 1.7881 28.6471 2.6847 42.6129l.225 3.5024c.021.3336.0865.6794.1702 1.1078.2177-.3076.3893-.5532.5424-.8095l5.7919-9.735c4.7443-7.9753 9.488-15.951 14.2509-23.915.4999-.8359.7097-1.729.6813-2.8955-.3414-14.1942-.676-28.3884-1.0105-42.583l-.6622-28.0064C577.5247 159.8654 577.4777 159.593 577.418 159.2487zM285.1704 233.5171c6.5764 11.1461 13.3113 22.4507 19.8247 33.3831l.2939.4935c.1223.2044.2817.3991.494.6471.0103-.0939.0201-.1859.0298-.2758.0773-.7112.1423-1.3098.181-1.9104l.1673-2.6157c.9181-14.3434 1.8361-28.6867 2.7184-43.0325.0782-1.2702.4685-2.2572 1.2658-3.1997 11.2777-13.3422 20.4987-24.2858 29.0178-34.44.8491-1.0124 1.8297-1.5822 3.1791-1.8478 2.4171-.4759 4.8651-1.0212 7.2328-1.548l.5522-.1233c1.3088-.291 2.6138-.5996 3.9182-.9083l.2059-.0484c-24.6492-7.2084-49.1771-13.9227-67.9849-19.0162-.0073.0484-.0147.0944-.022.1379-.0406.2553-.0704.4285-.0743.6031l-.0954 3.9734c-.537 22.4399-1.0746 44.8798-1.5671 67.3202C284.4906 231.8717 284.7444 232.7947 285.1704 233.5171zM379.3271 341.9589l12.2275-3.6472c.3693-.1105.7253-.2651 1.1024-.4289.0919-.0401.1839-.0802.2763-.1194.001-.2289.0039-.451.0063-.6671.0074-.6109.0142-1.1787-.0122-1.7446-.1648-3.501-.3331-7.002-.5018-10.5029-.4069-8.4678-.828-17.2242-1.1919-25.8387-.0607-1.434-.5356-2.2626-1.7534-3.0569-7.3649-4.801-14.8246-9.7248-22.0388-14.4861l-16.5819-10.9246-.0592.2739c-.0963.4353-.1687.7596-.2191 1.0873l-4.3931 28.6593c-2.0826 13.5637-4.1652 27.1275-6.2717 40.6877-.1589 1.0222.0489 1.6825.742 2.3546 2.3888 2.3183 4.3667 4.2928 6.2551 6.395.8838.9846 1.6541 1.1739 3.0598.7498C359.7499 347.7933 369.5387 344.8759 379.3271 341.9589zM470.8769 337.8509c.0841.0562.1629.1091.1922.1179l13.1333 3.928c10.0813 3.0148 20.1627 6.0296 30.2401 9.0567.7831.2348 1.2888.0963 1.8669-.5131 2.4009-2.5257 4.4107-4.6235 6.596-6.7075.8031-.765 1.0129-1.4879.8026-2.7615-.6808-4.1202-1.3148-8.3181-1.9276-12.3777l-1.6928-11.1187c-2.334-15.2858-4.668-30.5712-7.0146-45.8551-.0416-.27-.159-.5503-.2949-.875-.0157-.0372-.0313-.0744-.047-.112l-.0684.0392c-.2612.1467-.4725.2651-.674.3981l-9.5145 6.2766c-9.4949 6.2658-18.9898 12.5317-28.5052 18.7653-1.0349.6779-1.4409 1.414-1.4981 2.716-.3869 8.7813-.8041 17.5612-1.2213 26.341l-.5062 10.702c-.022.4637-.0156.9293-.0098 1.4086l.0039.4788C470.7898 337.7927 470.8358 337.8235 470.8769 337.8509zM493.4606 430.3647c2.1237-7.672 4.2831-15.3338 6.4419-22.996l2.6832-9.5296c.5698-2.0293 1.146-4.0571 1.7221-6.0849 3.1288-11.0135 6.3642-22.4023 8.5544-33.8482.0939-.4891.1629-.9821.2363-1.502l.0621-.4329-42.1898-12.5919c-.001.046-.0015.09-.002.1321-.0054.3194-.0098.5473.0088.7737.7728 9.511 1.549 19.0216 2.3301 28.5316l5.1204 62.2424c.5302 6.3793 1.0604 12.7592 1.5504 19.1424.0924 1.2047.5199 2.0948 1.4286 2.9762 2.2019 2.1349 4.4044 4.3412 6.5339 6.4747 1.0956 1.0971 2.1907 2.1946 3.2906 3.2868.2196.2186.4671.4094.7924.6613.0093.0073.0191.0147.0284.0225l.0206-.3199c.044-.6466.0802-1.1866.0905-1.7265l.1648-9.0312c.1286-7.1575.2568-14.315.4245-21.472C492.789 433.5331 493.0336 431.9049 493.4606 430.3647zM370.9278 435.2346c.1702 7.2465.2993 14.4945.4289 21.742l.1634 9.0034c.0093.4876.0406.9753.0822 1.618l.0205.338c.8965-.8535 1.7666-1.6864 2.6186-2.5017 2.5458-2.4357 4.9502-4.7365 7.4065-6.9633 1.1611-1.053 1.7167-2.2474 1.8566-3.9945 1.1753-14.6598 2.4147-29.3925 3.4721-41.8709.9616-11.3422 1.9285-22.684 2.8955-34.0262.9669-11.3417 1.9339-22.684 2.895-34.0262.0244-.2847-.0103-.5865-.0548-.9679-.0064-.0568-.0127-.1145-.0196-.1736l-42.0895 12.5386c-.003.0871-.0069.1697-.0108.249-.0127.2798-.023.5008.0171.6828.3878 1.7554.7571 3.5157 1.1259 5.2764.851 4.0634 1.7314 8.2653 2.8461 12.3229 3.1356 11.4161 6.4018 23.0028 9.5609 34.2076 2.0293 7.1986 4.0586 14.3972 6.0688 21.6011C370.6397 431.8266 370.8877 433.5365 370.9278 435.2346z" fill="#eef1ef" class="color000 svgShape"></path><path d="M452.0705 218.8191l62.7721-34.1935-.001-.0098-8.5568-1.9124c-21.9802-4.9135-43.9608-9.8265-65.9429-14.7346-.5082-.1135-1.0262-.1849-1.5436-.2568l-.3658-.0518c-.0284.0284-.0435.0484-.0651.0753l-.0254.0318L452.0705 218.8191zM425.4155 167.4983l-76.1862 17.0339c7.1198 4.3515 57.3988 31.589 62.5129 33.8452L425.4155 167.4983zM399.614 263.4593c1.2712-4.7056 2.5424-9.4113 3.7949-14.1218.5728-2.1555 1.1592-4.308 1.7476-6.4688 1.2101-4.4435 2.4592-9.0293 3.6081-13.7129-7.3135 4.4146-50.416 33.4999-54.9822 37.11l38.2667 25.3114L399.614 263.4593zM510.2113 266.0579l-55.0468-36.9334c1.5343 7.5033 14.9048 57.0643 16.8084 62.2326L510.2113 266.0579zM312.2128 246.7233c-.8168 12.6902-1.6336 25.3804-2.421 38.0725-.067 1.0839.0181 2.269.2612 3.6218.7253 4.0488 1.5211 8.1563 2.291 12.1282l.2841 1.4683c.0783.4016.2.8046.3546 1.3152.0201.0656.0401.1335.0611.203l32.265-37.4206-31.7074-39.9453-.0362.3414c-.0494.4563-.0993.9127-.1301 1.37-.2255 3.3562-.4422 6.7129-.6579 10.0701L312.2128 246.7233zM553.8278 283.9169c-.8188-13.7153-1.7172-27.6571-2.5869-41.1402l-.6388-9.9253c-.1017-1.5822-.2196-3.163-.338-4.7438l-.1516-1.9789-31.6947 39.9223 32.2347 37.4186c.0318-.1184.0626-.2314.0924-.3404.1609-.5918.2876-1.0545.3796-1.5235l.5433-2.735c.5737-2.8725 1.167-5.8428 1.6517-8.7769C553.6311 288.2078 553.9529 286.0195 553.8278 283.9169zM354.3957 392.859c-.0255-.0651-.0514-.1326-.0783-.2025l-30.4714 35.8295 30.9233 28.0205c.0152-.0196.0298-.0386.044-.0572.1477-.1917.2455-.3189.3027-.4431l3.2535-7.0509c2.3193-5.0309 4.6381-10.0618 6.9839-15.0799.3878-.8305.2328-1.5553-.0103-2.4167-1.885-6.6865-3.7656-13.3739-5.6462-20.0619l-4.8959-17.3983C354.7019 393.646 354.5684 393.3036 354.3957 392.859zM529.6735 416.5227l-2.1349-2.513c-2.7321-3.2168-5.4642-6.4341-8.2135-9.6363-1.0862-1.2643-2.1574-2.5423-3.2314-3.8242-2.1658-2.5839-4.4009-5.251-6.777-7.8188-.066.1286-.112.2196-.1394.3164l-3.1571 11.1828c-2.602 9.2205-5.204 18.441-7.8256 27.6562-.2465.8652-.0518 1.5587.3419 2.3976 1.2462 2.6563 2.4763 5.3204 3.7064 7.9846l6.5872 14.2529 30.9987-28.0328-3.2026-3.7744C534.2867 421.9556 531.9816 419.2382 529.6735 416.5227zM353.4992 499.9827c-1.7373-1.8038-3.475-3.6071-5.2162-5.4065-.2025-.2094-.4544-.3932-.7454-.6065-.0171-.0122-.0342-.025-.0513-.0377-.0758.1985-.1335.3517-.1688.5101l-1.2946 5.7939c-3.3122 14.8246-6.7373 30.154-10.0618 45.2403-.2035.9229-.1854 2.0214.0499 3.0148 1.7167 7.2582 3.5137 14.6271 5.252 21.7527l1.0853 4.4508c.0714.2949.1663.5835.2871.9503.0059-.0088.0117-.0176.0176-.0264.2632-.3922.473-.7033.6539-1.031l2.5502-4.6161c3.1415-5.6833 6.3896-11.5604 9.5252-17.3719.8217-1.5226 1.433-3.1371 1.7691-4.6685 1.299-5.922 2.5668-11.8509 3.8345-17.7803 1.1831-5.5347 2.3668-11.0698 3.5758-16.5986.2856-1.3064.0802-2.0816-.7835-2.962C360.3314 507.0747 356.9151 503.5287 353.4992 499.9827zM523.2874 566.6891c1.3827-5.7068 2.7649-11.4137 4.1862-17.1107.4417-1.7686.4681-3.3895.0826-5.1003-2.602-11.5369-5.1727-23.0811-7.7434-34.6248l-3.0486-13.6806c-.1326-.5952-.2925-1.1841-.4656-1.8239l-.1198-.449c-.1521.0939-.2656.1673-.3428.2475-1.7172 1.7755-3.4321 3.5538-5.1463 5.3317-3.7147 3.8536-7.4299 7.7068-11.1735 11.532-.7195.7346-.6212 1.3998-.4011 2.424l2.0239 9.4636c1.8258 8.5446 3.6516 17.0897 5.5078 25.6274.2495 1.1484.6857 2.3149 1.2614 3.3738 3.4609 6.3681 7.0215 12.8203 10.4648 19.0598l1.8483 3.3499c.2045.3702.4348.7258.7415 1.2002.0313.049.0641.0993.0974.1507l.0734-.2622c.1628-.5766.2832-1.0036.3884-1.4345L523.2874 566.6891zM344.6885 274.5115l-8.1396 9.4587c-7.134 8.2917-14.268 16.5839-21.4246 24.8566-.6515.7527-.7987 1.4018-.5439 2.3936 1.8009 7.0049 3.588 14.0132 5.3757 21.0215 1.2081 4.7365 2.4157 9.4724 3.6277 14.2079.0861.335.2338.6691.405 1.056.0323.0739.0655.1492.0993.2264.8344-.4651 1.6537-.9259 2.4636-1.3817 2.3271-1.3083 4.5251-2.5448 6.7917-3.7216 1.0927-.5664 1.5837-1.2907 1.751-2.5834.2964-2.2826.6559-4.5931 1.0036-6.8273l2.4132-15.7177c2.157-14.0592 4.3139-28.1179 6.461-42.1785.0494-.3243.0396-.675.0249-1.1157C344.8783 274.3124 344.778 274.4073 344.6885 274.5115zM524.3698 280.7725l-5.5709-6.4708c.002.765.0073 1.4903.1154 2.2058 1.3362 8.8444 2.6915 17.6859 4.0468 26.5273l2.1741 14.1991c1.1758 7.6887 2.3511 15.3768 3.4877 23.0714.1634 1.1063.5963 1.7289 1.5441 2.22 1.5602.8085 3.1131 1.6855 4.6151 2.534.7904.4466 1.5813.8936 2.376 1.3323.629.3473 1.2673.6774 1.9354 1.0227l.5795.3008c.0142-.0313.0284-.0616.0416-.0915.0988-.2152.1721-.3683.2137-.5307l2.8329-11.0879c2.1325-8.3519 4.265-16.7033 6.4175-25.0503.2314-.8965-.0646-1.4663-.6534-2.1481C540.4655 299.4693 532.4174 290.1206 524.3698 280.7725zM419.7512 601.5986c3.1342 2.9904 6.2678 5.9812 9.4137 8.9594 1.1245 1.0657 4.1769 1.1097 5.2681.0787 3.2775-3.0975 6.5383-6.2125 9.7996-9.3276 2.1051-2.0112 4.2107-4.0223 6.3206-6.0286.604-.5747.8114-1.0501.74-1.6953-.4133-3.7416-.806-7.4852-1.1968-11.2097l-.358-3.4047c-.0714-.0357-.1384-.0699-.202-.1027-.2005-.1037-.359-.1849-.5023-.2191l-3.6702-.8848c-3.9451-.9552-8.0251-1.9422-12.0587-2.8011-1.0721-.2274-2.3761-.1794-3.9847.1517-2.291.4715-4.6039 1.0505-6.8405 1.6111-.9044.2264-1.8087.4529-2.714.6735l-5.8061 1.4184-.3913 3.7294c-.3893 3.723-.7664 7.3321-1.1841 10.9362-.0954.8266.2309 1.3162.8271 1.8821C415.3943 597.4408 417.5728 599.5195 419.7512 601.5986zM352.2261 384.7762c-.8804-2.6465-1.6781-5.4652-2.3716-8.3778-.2685-1.1279-.765-1.5412-2.0425-1.7016-2.7986-.3502-5.6325-.7752-8.3734-1.1866-1.3103-.1966-2.6206-.3927-3.9319-.5825-.7292-.1051-1.4609-.1898-2.1946-.2749l-.7361-.0866c-.0279.046-.0553.0905-.0817.1335-.1144.1873-.2108.3414-.2793.5077l-1.0887 2.6333c-2.1154 5.1145-4.2307 10.229-6.3079 15.3592-.2983.7366-.4074 1.5827-.4813 2.3878-.6133 6.6928-1.2017 13.3876-1.7808 20.0834-.1942 2.2415-.3707 4.4851-.5468 6.7281l-.2064 2.6084 16.0043-18.8118c4.4743-5.2661 9.1007-10.7113 13.6987-16.0273C352.4794 387.0432 352.6746 386.1236 352.2261 384.7762zM541.7993 422.8037c0-.0024 0-.0054 0-.0078.0088-.4911.0156-.8613-.0157-1.2286l-.1937-2.2631c-.7351-8.5999-1.4957-17.4932-2.2919-26.2349-.0846-.9278-.4343-1.8899-.7992-2.7913-1.8062-4.4611-3.6423-8.9104-5.4789-13.3588l-.9303-2.2542c-.2156-.5229-.449-1.0388-.6979-1.5896l-.2514-.56-3.1058.4485c-4.4166.6368-8.7764 1.2663-13.1377 1.8918-.5767.0827-.7356.4363-.9386 1.168l-.4309 1.5558c-.6989 2.5296-1.4223 5.1454-2.2102 7.6975-.3076.9968-.1408 1.6957.6138 2.579 6.82 7.9772 13.6229 15.9686 20.4263 23.9601l8.7794 10.3107C541.322 422.3444 541.5283 422.544 541.7993 422.8037zM346.913 485.7519l20.2018 20.9672c.0294-.0685.0528-.1286.0538-.1521-.3644-20.7305-.739-41.4615-1.12-62.193L346.913 485.7519z" fill="#eef1ef" class="color000 svgShape"></path><polygon points="497.562 444.225 496.467 506.781 496.501 506.796 516.774 485.749" fill="#eef1ef" class="color000 svgShape"></polygon><path d="M316.6455 594.6319l22.1455-13.1906-6.3593-26.2031C326.3096 570.3906 321.2846 582.9312 316.6455 594.6319zM531.6001 556.0981c-.0865-.2162-.2137-.4285-.384-.6994l-6.3162 26.0118 21.8701 13.1402c-.024-.3776-.0591-.7317-.1795-1.0335C541.6174 581.0354 536.6119 568.5653 531.6001 556.0981zM524.65 349.7414c.0333-.0015.0665-.002.1003-.002 3.4218 0 5.54 4.8915 5.54 9.423 0 1.6214-.2744 3.0251-.7933 4.0586-.6163 1.2276-1.5514 1.8767-2.7047 1.8767-3.4218 0-5.54-4.8915-5.54-9.423 0-1.1915.1482-2.2655.4329-3.1616-.9342.8814-1.8552 1.7588-2.7703 2.6475-.3785.3673-.5502 1.1357-.6759 1.6967-.8237 3.6849-1.6058 7.3785-2.3883 11.0722l-.0792.3742c-.0695.3282-.1027.6637-.1355.9875-.0049.0479-.0098.0959-.0146.1428.0557.0244.0992.0464.1389.0558 1.4844-.2157 3.0197-.4363 4.5554-.6569 3.2031-.4603 6.5148-.9362 9.7806-1.3524.9537-.1218 1.2751-.6573 1.6566-1.4609 1.1113-2.3403 2.2347-4.6753 3.3582-7.0098.8408-1.7471 1.682-3.4941 2.5174-5.2437.1096-.2304.1819-.4945.2651-.7997.0171-.0631.0347-.1272.0528-.1922l-10.3356-5.7885-2.1262 1.9794C525.2042 349.2259 524.9263 349.4842 524.65 349.7414zM339.2628 349.7414c-.0333-.0015-.0665-.002-.1003-.002-3.4217 0-5.54 4.8915-5.54 9.423 0 1.6214.2744 3.0251.7933 4.0586.6163 1.2276 1.5514 1.8767 2.7047 1.8767 3.4218 0 5.54-4.8915 5.54-9.423 0-1.1915-.1482-2.2655-.4328-3.1616.9342.8814 1.8551 1.7588 2.7703 2.6475.3785.3673.5502 1.1357.6759 1.6967.8236 3.6849 1.6057 7.3785 2.3883 11.0722l.0792.3742c.0695.3282.1027.6637.1355.9875.0049.0479.0098.0959.0147.1428-.0558.0244-.0993.0464-.1389.0558-1.4844-.2157-3.0197-.4363-4.5555-.6569-3.2031-.4603-6.5148-.9362-9.7805-1.3524-.9537-.1218-1.2751-.6573-1.6566-1.4609-1.1112-2.3403-2.2347-4.6753-3.3582-7.0098-.8408-1.7471-1.682-3.4941-2.5174-5.2437-.1096-.2304-.1819-.4945-.2651-.7997-.0171-.0631-.0347-.1272-.0528-.1922l10.3357-5.7885 2.1261 1.9794C338.7086 349.2259 338.9864 349.4842 339.2628 349.7414zM549.3452 363.6045c.7679 1.7578 1.5358 3.5161 2.308 5.2725.1287.2925.2891.5713.5062.9528.0083.0147.0171.0298.0259.045l9.7316-23.5311c-2.5654-1.9256-12.1003-7.2964-14.6241-8.2575l-.6984 2.9336c-.6926 2.9214-1.4086 5.9421-2.1706 8.9001-.2896 1.1254-.2133 2.0513.2558 3.0965C546.2574 356.5355 547.8015 360.0698 549.3452 363.6045zM316.1593 337.8245l-14.4656 8.343 9.8133 23.739c.0411-.0318.0724-.0568.0939-.0817l1.1738-2.6729c2.1476-4.8685 4.3682-9.9028 6.4913-14.8789.1956-.4583.2045-1.1831.024-1.9892-.8266-3.6912-1.7393-7.4294-2.6221-11.0444l-.0264-.1071c-.0836-.3434-.2255-.6862-.3898-1.0838C316.2214 337.9756 316.1906 337.9008 316.1593 337.8245zM543.8902 383.6791c1.7358-2.4362 3.3743-4.736 5.0402-7.0152.3859-.5273.2446-.9073-.0606-1.5881l-.0773-.1741c-2.3781-5.4359-4.7575-10.8712-7.1551-16.2983-.0812-.1839-.223-.3629-.4196-.607-.4265.8897-.8437 1.7661-1.256 2.6319-1.2824 2.692-2.4929 5.2343-3.787 7.7684-.5013.9807-.5077 1.8077-.0225 2.9503 1.2609 2.9673 2.4822 5.9518 3.7034 8.9363.583 1.4247 1.166 2.849 1.7535 4.2713.1467.3561.3154.7019.538 1.1572.0377.0782.0773.1594.1189.244L543.8902 383.6791zM318.2527 381.5706c.8334 1.1636 1.6664 2.3267 2.5052 3.4863.1805.2494.4065.4871.6451.739.0181.0186.0357.0377.0538.0562.0773-.0959.133-.1692.1575-.2284.6994-1.6894 1.3954-3.3802 2.0919-5.071 1.3514-3.2834 2.7032-6.5662 4.0776-9.8397.2744-.653.2494-1.1939-.0861-1.8664-.652-1.3073-1.2809-2.627-1.9095-3.946l-.9361-1.9569c-.5737-1.1905-1.1504-2.379-1.7975-3.7123l-.672-1.3861-1.725 3.951c-2.0474 4.6909-3.9872 9.1364-5.9553 13.5691-.2983.672-.1272 1.1049.3174 1.7158C316.1055 378.5719 317.1791 380.0715 318.2527 381.5706zM314.8554 332.6577c-.5977-4.1138-2.8363-11.9932-3.9583-14.5468l-7.651 21.2123L314.8554 332.6577z" fill="#eef1ef" class="color000 svgShape"></path><polygon points="548.676 332.577 560.444 339.324 552.605 317.65" fill="#eef1ef" class="color000 svgShape"></polygon></svg></g></svg>