<?xml version="1.0" standalone="no"?>
<!DOCTYPE svg PUBLIC "-//W3C//DTD SVG 20010904//EN"
 "http://www.w3.org/TR/2001/REC-SVG-20010904/DTD/svg10.dtd">
<svg version="1.0" xmlns="http://www.w3.org/2000/svg"
 width="512.000000pt" height="512.000000pt" viewBox="0 0 512.000000 512.000000"
 preserveAspectRatio="xMidYMid meet">

<g transform="translate(0.000000,512.000000) scale(0.100000,-0.100000)"
fill="#000000" stroke="none">
<path d="M604 4880 c-128 -19 -230 -75 -339 -184 -281 -282 -333 -648 -171
-1197 18 -64 39 -126 45 -138 23 -42 98 -40 128 5 16 24 15 30 -7 102 -147
491 -143 754 16 1004 58 91 154 182 232 220 55 27 79 33 156 36 113 5 187 -13
311 -74 120 -59 257 -158 379 -275 l100 -96 -39 -89 -39 -90 -83 63 c-272 205
-509 212 -697 20 -84 -85 -137 -183 -160 -299 -36 -175 -13 -323 106 -688 77
-237 82 -299 44 -567 -41 -286 -33 -399 33 -490 60 -82 206 -116 337 -78 85
24 201 87 278 151 37 30 71 54 75 52 5 -2 27 -20 50 -41 l42 -38 -23 -32
c-209 -301 -540 -527 -772 -528 -121 -1 -191 41 -223 135 -28 81 -22 246 21
541 49 333 55 468 27 600 -11 55 -32 137 -46 182 -22 70 -30 85 -56 98 -34 18
-61 13 -89 -18 -26 -28 -26 -34 17 -183 34 -120 36 -138 36 -264 0 -104 -9
-192 -38 -385 -31 -204 -38 -278 -39 -405 0 -136 3 -162 22 -214 62 -168 177
-242 372 -240 160 2 334 71 521 209 104 76 258 230 329 328 30 42 57 76 60 76
3 0 16 -9 29 -20 l24 -20 -63 -152 c-178 -435 -202 -567 -119 -662 40 -45 77
-58 153 -53 169 10 388 194 505 422 35 69 44 75 70 52 14 -13 15 -35 9 -169
-13 -304 -65 -554 -168 -801 -46 -110 -52 -174 -21 -234 32 -61 69 -88 216
-153 119 -54 148 -63 196 -63 94 1 133 31 233 182 224 336 365 704 426 1107
11 72 20 135 20 140 0 6 16 -19 36 -55 89 -159 190 -276 303 -348 246 -159
433 -80 399 169 -11 84 -45 184 -136 404 -40 99 -76 189 -78 200 -3 13 5 26
22 39 24 17 27 17 36 3 23 -42 139 -179 211 -249 203 -200 444 -331 647 -353
138 -14 280 37 351 128 96 121 107 297 46 722 -48 331 -53 417 -34 530 9 50
59 225 112 390 107 332 138 449 160 605 47 334 -27 607 -225 822 -208 228
-475 273 -779 132 -108 -50 -279 -167 -396 -271 -55 -49 -106 -97 -114 -106
-12 -15 -21 -10 -91 57 -132 124 -279 186 -488 208 -152 16 -752 16 -904 0
-225 -23 -388 -98 -522 -240 l-39 -41 -71 66 c-328 303 -625 441 -872 403z
m3998 -184 c152 -73 288 -250 340 -443 16 -61 21 -108 21 -218 0 -207 -23
-312 -176 -785 -104 -322 -121 -409 -113 -575 3 -71 19 -222 35 -335 54 -370
59 -473 25 -581 -50 -159 -272 -175 -521 -38 -153 85 -342 255 -449 405 l-45
63 42 38 c23 21 45 39 50 41 4 2 38 -22 75 -52 125 -103 274 -166 394 -166
123 0 208 50 254 149 30 65 28 260 -3 465 -36 235 -30 302 52 554 92 283 110
367 110 527 0 116 -2 139 -27 210 -68 199 -215 338 -388 367 -129 21 -291 -35
-452 -156 l-83 -63 -38 89 -38 89 64 65 c170 174 385 316 551 365 97 29 244
22 320 -15z m-1770 -147 c112 -5 235 -17 273 -24 112 -23 227 -86 310 -169 84
-85 105 -124 255 -471 62 -143 122 -270 133 -282 12 -14 32 -23 49 -23 34 0
78 40 78 71 0 11 -27 84 -61 161 -49 112 -58 142 -48 154 16 19 145 115 190
141 109 63 235 81 314 44 50 -23 135 -112 168 -177 38 -74 49 -129 49 -234 -1
-118 -23 -222 -95 -445 -31 -93 -63 -199 -73 -235 -25 -91 -23 -249 6 -435 29
-188 32 -327 8 -371 -50 -91 -220 -61 -390 69 -38 28 -68 53 -68 55 0 2 23 29
50 60 63 70 143 231 164 329 20 91 20 259 1 342 -23 98 -114 320 -135 331 -35
19 -77 12 -99 -16 -12 -15 -21 -34 -21 -43 0 -9 22 -73 49 -142 76 -194 89
-307 52 -452 -38 -146 -100 -237 -259 -379 -253 -225 -471 -396 -695 -546 -71
-47 -135 -95 -142 -106 -7 -12 -18 -68 -24 -126 -47 -413 -223 -876 -451
-1185 -33 -44 -46 -55 -69 -55 -42 0 -263 103 -275 129 -7 16 3 50 42 148 87
217 141 470 162 748 13 180 13 278 -1 307 -6 13 -74 64 -153 116 -277 179
-596 432 -802 637 -91 90 -118 124 -148 185 -66 135 -82 284 -47 421 30 116
319 820 446 1085 96 199 246 318 452 358 154 31 497 41 805 25z m-1780 -416
c71 -33 159 -91 221 -145 l38 -33 -89 -210 c-131 -306 -221 -540 -243 -625
-27 -103 -27 -268 0 -373 26 -100 98 -238 161 -309 27 -31 50 -58 50 -60 0 -2
-30 -27 -67 -55 -140 -107 -288 -149 -360 -104 -55 34 -64 111 -38 301 43 307
48 373 36 452 -7 43 -41 169 -76 280 -105 333 -123 434 -105 566 19 140 113
286 215 334 63 29 171 21 257 -19z m787 -2287 c61 -44 111 -86 111 -93 0 -20
-47 -109 -90 -173 -92 -135 -243 -250 -330 -250 -66 0 -46 95 87 427 70 174
79 191 95 180 9 -6 67 -48 127 -91z m1659 -76 c108 -268 138 -370 125 -420 -5
-20 -11 -22 -49 -17 -119 13 -286 172 -382 364 l-32 62 132 95 c72 53 133 95
134 93 1 -1 33 -81 72 -177z"/>
<path d="M1694 2871 c-69 -42 -107 -129 -107 -246 0 -158 73 -265 180 -265
153 0 233 296 122 450 -56 77 -131 100 -195 61z"/>
<path d="M3305 2878 c-80 -44 -125 -135 -125 -253 0 -96 26 -167 80 -220 37
-36 46 -40 93 -40 67 0 108 29 145 105 35 72 43 192 17 270 -37 111 -138 178
-210 138z"/>
</g>
</svg>
